<svg xmlns="http://www.w3.org/2000/svg" width="305" height="87" viewBox="0 0 305 87">
    <g fill="#4A4A4A" fill-rule="evenodd">
        <path d="M233.444 27.034c4.197.018 7.49-3.235 7.518-7.424.025-4.115-3.354-7.486-7.497-7.479-4.081.009-7.343 3.246-7.415 7.36-.074 4.166 3.218 7.524 7.394 7.543m6.465 49.653c-.457 1.948-.623 3.664-1.27 5.174-.991 2.314-3.67 3.48-6.227 3.052-2.323-.389-4.352-2.341-4.747-4.687-.16-.948-.173-1.93-.173-2.898-.01-12.493-.02-24.987.02-37.481.004-1.174-.253-1.769-1.444-2.269-8.543-3.592-13.075-11.74-11.878-21.13C215.228 8.28 222.45 1.382 231.238.163c10.38-1.44 20.641 6.877 21.658 17.213.995 10.115-5.308 17.765-12.286 20.414-.45.171-1.049.768-1.053 1.172-.051 5.455-.011 11.328.016 16.784 0 .106.107.875.24.875h8.44c3.264 0 4.156.48 4.16 3.798.004 4.366.009 8.526-.003 12.893-.007 2.445-1.095 3.453-3.53 3.473-3.025.024-6.05-.098-8.971-.098M36.273 63.733l-7.617-21.3-7.133 21.469 14.75-.169zM59 86.324l-15.092.175-4.34-11.938-21.096.241-4.066 12.034L0 87l21.62-59.836L36.029 27 59 86.324zM97 80.756c-.43.346-4.879 5.114-16.225 5.242-11.694.132-22.611-7.636-22.773-21.7-.162-14.15 10.746-22.165 22.44-22.295 10.913-.124 15.902 4.28 15.902 4.28l-2.913 10.41a17.666 17.666 0 0 0-11.043-3.648c-5.89.065-10.52 4.15-10.443 10.839.076 6.689 4.368 10.843 10.865 10.77 6.496-.074 10.78-4.239 10.78-4.239L97 80.755zM139 80.756c-.43.346-4.88 5.115-16.226 5.242-11.694.131-22.61-7.636-22.772-21.7-.164-14.15 10.747-22.165 22.44-22.295 10.914-.124 15.902 4.28 15.902 4.28l-2.911 10.41a17.671 17.671 0 0 0-11.044-3.648c-5.891.065-10.522 4.15-10.444 10.839.077 6.689 4.368 10.843 10.864 10.77 6.496-.074 10.781-4.239 10.781-4.239l3.41 10.34zM172.177 58.315c-.13-3.857-3.013-8.456-8.762-8.39-5.661.063-8.528 4.557-8.653 8.589l17.415-.199zm12.7 7.662l-30.112.342c.67 6.081 5.334 8.774 10.91 8.71 5.491-.063 10.266-2.52 12.65-4.176l5.487 7.057c-1.361 1.044-6.871 6.94-19.998 7.088-13.04.15-22.653-7.804-22.812-21.783-.16-13.979 10.044-22.07 22.569-22.213 12.525-.142 21.284 8.078 21.427 20.426.022 2.06-.121 4.549-.121 4.549z"/>
        <path d="M219.097 81.171c-3.086 2.432-7.313 3.763-13.023 3.827-6.404.072-13.175-1.82-18.074-6.3l5.098-8.19c3.495 2.871 9.233 5.032 12.694 4.994 3.46-.039 5.873-.922 5.842-3.661-.032-2.74-6.277-4.038-7.84-4.533-1.65-.41-4.081-1.067-6.081-1.901-2.001-.834-7.31-3.427-7.396-10.958-.095-8.216 7.116-13.346 16.03-13.447 8.912-.1 13.969 3.095 16.415 5.036l-4.407 8.095c-2.446-1.855-7.318-4.027-10.778-3.987-3.29.037-5.097.914-5.07 3.139.025 2.224 3.325 3.215 6.277 4.038 2.952.822 4.255 1.234 6.081 1.9 1.911.662 4.086 1.75 5.574 3.103 1.4 1.354 3.508 4.07 3.56 8.52.05 4.364-1.815 7.809-4.902 10.325M281.415 52.807c-6.099.07-9.57 4.827-9.498 11.087.073 6.26 3.65 10.938 9.749 10.87 6.014-.069 9.568-4.827 9.497-11.087-.071-6.26-3.732-10.938-9.748-10.87m.379 33.19c-13.403.153-23.637-8.05-23.792-21.687-.157-13.635 9.887-22.156 23.29-22.308 13.402-.152 23.551 8.139 23.706 21.774.157 13.636-9.801 22.068-23.204 22.222"/>
    </g>
</svg>
