<?xml version="1.0" encoding="UTF-8"?>
<svg width="47px" height="31px" viewBox="0 0 47 31" version="1.1" xmlns="http://www.w3.org/2000/svg" xmlns:xlink="http://www.w3.org/1999/xlink">
    <!-- Generator: Sketch 46.2 (44496) - http://www.bohemiancoding.com/sketch -->
    <title>Page 1</title>
    <desc>Created with Sketch.</desc>
    <defs></defs>
    <g id="Page-1" stroke="none" stroke-width="1" fill="none" fill-rule="evenodd">
        <g>
            <path d="M21,17 L21,20.632 L21,24 L15.612,24 C10.352,24 6,20.478 6,15.132 L6,15.045 C6,9.699 10.352,6 15.612,6 L18,6 L18,0 L15.612,0 C6.428,0 0,6.638 0,15.132 L0,15.218 C0,23.712 6.428,31 15.612,31 L27,31 L27,19.875 L27,17 L21,17 Z" id="Fill-1" fill="#4C4C4C"></path>
            <path d="M27,14 L27,9.561 L27,6 L32.193,6 C37.453,6 41,9.715 41,15.061 L41,15.147 C41,20.494 37.453,24 32.193,24 L29,24 L29,31 L32.193,31 C41.377,31 47,23.555 47,15.061 L47,14.975 C47,6.481 41.377,0 32.193,0 L21,0 L21,10.318 L21,14 L27,14 Z" id="Fill-3" fill="#4C4C4C"></path>
            <path d="M13.646,18.8389 L13.528,18.8389 C12.903,18.8389 12.392,18.3279 12.392,17.7029 L12.392,12.4899 C12.392,11.8649 12.903,11.3539 13.528,11.3539 L13.646,11.3539 C14.271,11.3539 14.782,11.8649 14.782,12.4899 L14.782,17.7029 C14.782,18.3279 14.271,18.8389 13.646,18.8389" id="Fill-5" fill="#4C4C4C"></path>
            <path d="M17.3291,15.0371 L17.3291,15.1551 C17.3291,15.7801 16.8181,16.2911 16.1931,16.2911 L10.9801,16.2911 C10.3551,16.2911 9.8441,15.7801 9.8441,15.1551 L9.8441,15.0371 C9.8441,14.4121 10.3551,13.9011 10.9801,13.9011 L16.1931,13.9011 C16.8181,13.9011 17.3291,14.4121 17.3291,15.0371" id="Fill-7" fill="#4C4C4C"></path>
            <path d="M35.791,12.3604 C35.791,13.1764 35.129,13.8384 34.313,13.8384 C33.496,13.8384 32.835,13.1764 32.835,12.3604 C32.835,11.5444 33.496,10.8824 34.313,10.8824 C35.129,10.8824 35.791,11.5444 35.791,12.3604" id="Fill-9" fill="#009B68"></path>
            <path d="M35.791,17.8955 C35.791,18.7115 35.129,19.3735 34.313,19.3735 C33.496,19.3735 32.835,18.7115 32.835,17.8955 C32.835,17.0795 33.496,16.4175 34.313,16.4175 C35.129,16.4175 35.791,17.0795 35.791,17.8955" id="Fill-11" fill="#006AAF"></path>
            <path d="M31.5449,13.6494 C32.3609,13.6494 33.0229,14.3114 33.0229,15.1274 C33.0229,15.9444 32.3609,16.6054 31.5449,16.6054 C30.7289,16.6054 30.0669,15.9444 30.0669,15.1274 C30.0669,14.3114 30.7289,13.6494 31.5449,13.6494" id="Fill-13" fill="#F2A63E"></path>
            <path d="M37.0806,13.6494 C37.8966,13.6494 38.5586,14.3114 38.5586,15.1274 C38.5586,15.9444 37.8966,16.6054 37.0806,16.6054 C36.2646,16.6054 35.6026,15.9444 35.6026,15.1274 C35.6026,14.3114 36.2646,13.6494 37.0806,13.6494" id="Fill-15" fill="#D22B2B"></path>
        </g>
    </g>
</svg>