<?xml version="1.0" encoding="UTF-8"?>
<svg width="255px" height="31px" viewBox="0 0 255 31" version="1.1" xmlns="http://www.w3.org/2000/svg" xmlns:xlink="http://www.w3.org/1999/xlink">
    <!-- Generator: Sketch 46.2 (44496) - http://www.bohemiancoding.com/sketch -->
    <title>Page 1</title>
    <desc>Created with Sketch.</desc>
    <defs>
        <polygon id="path-1" points="0 31 254.826 31 254.826 0 0 0"></polygon>
    </defs>
    <g id="Page-1" stroke="none" stroke-width="1" fill="none" fill-rule="evenodd">
        <g>
            <path d="M21,17 L21,20.632 L21,24 L15.612,24 C10.352,24 6,20.478 6,15.132 L6,15.045 C6,9.699 10.352,6 15.612,6 L18,6 L18,0 L15.612,0 C6.428,0 0,6.638 0,15.132 L0,15.218 C0,23.712 6.428,31 15.612,31 L27,31 L27,19.875 L27,17 L21,17 Z" id="Fill-1" fill="#4C4C4C"></path>
            <path d="M27,14 L27,9.561 L27,6 L32.193,6 C37.453,6 41,9.715 41,15.061 L41,15.147 C41,20.494 37.453,24 32.193,24 L29,24 L29,31 L32.193,31 C41.377,31 47,23.555 47,15.061 L47,14.975 C47,6.481 41.377,0 32.193,0 L21,0 L21,10.318 L21,14 L27,14 Z" id="Fill-3" fill="#4C4C4C"></path>
            <path d="M13.646,18.8389 L13.528,18.8389 C12.903,18.8389 12.392,18.3279 12.392,17.7029 L12.392,12.4899 C12.392,11.8649 12.903,11.3539 13.528,11.3539 L13.646,11.3539 C14.271,11.3539 14.782,11.8649 14.782,12.4899 L14.782,17.7029 C14.782,18.3279 14.271,18.8389 13.646,18.8389" id="Fill-5" fill="#4C4C4C"></path>
            <path d="M17.3291,15.0371 L17.3291,15.1551 C17.3291,15.7801 16.8181,16.2911 16.1931,16.2911 L10.9801,16.2911 C10.3551,16.2911 9.8441,15.7801 9.8441,15.1551 L9.8441,15.0371 C9.8441,14.4121 10.3551,13.9011 10.9801,13.9011 L16.1931,13.9011 C16.8181,13.9011 17.3291,14.4121 17.3291,15.0371" id="Fill-7" fill="#4C4C4C"></path>
            <path d="M35.791,12.3604 C35.791,13.1764 35.129,13.8384 34.313,13.8384 C33.496,13.8384 32.835,13.1764 32.835,12.3604 C32.835,11.5444 33.496,10.8824 34.313,10.8824 C35.129,10.8824 35.791,11.5444 35.791,12.3604" id="Fill-9" fill="#009B68"></path>
            <path d="M35.791,17.8955 C35.791,18.7115 35.129,19.3735 34.313,19.3735 C33.496,19.3735 32.835,18.7115 32.835,17.8955 C32.835,17.0795 33.496,16.4175 34.313,16.4175 C35.129,16.4175 35.791,17.0795 35.791,17.8955" id="Fill-11" fill="#006AAF"></path>
            <path d="M31.5449,13.6494 C32.3609,13.6494 33.0229,14.3114 33.0229,15.1274 C33.0229,15.9444 32.3609,16.6054 31.5449,16.6054 C30.7289,16.6054 30.0669,15.9444 30.0669,15.1274 C30.0669,14.3114 30.7289,13.6494 31.5449,13.6494" id="Fill-13" fill="#F2A63E"></path>
            <path d="M37.0806,13.6494 C37.8966,13.6494 38.5586,14.3114 38.5586,15.1274 C38.5586,15.9444 37.8966,16.6054 37.0806,16.6054 C36.2646,16.6054 35.6026,15.9444 35.6026,15.1274 C35.6026,14.3114 36.2646,13.6494 37.0806,13.6494" id="Fill-15" fill="#D22B2B"></path>
            <path d="M57.3511,13.5869 L57.3511,13.5389 C57.3511,8.7699 61.0661,4.8639 66.1461,4.8639 C69.1651,4.8639 70.9861,5.6789 72.7361,7.1639 L70.4111,9.9679 C69.1171,8.8899 67.9671,8.2669 66.0261,8.2669 C63.3421,8.2669 61.2091,10.6389 61.2091,13.4909 L61.2091,13.5389 C61.2091,16.6059 63.3181,18.8589 66.2891,18.8589 C67.6311,18.8589 68.8301,18.5229 69.7641,17.8529 L69.7641,15.4559 L66.0501,15.4559 L66.0501,12.2689 L73.3351,12.2689 L73.3351,19.5539 C71.6091,21.0159 69.2371,22.2139 66.1701,22.2139 C60.9461,22.2139 57.3511,18.5469 57.3511,13.5869" id="Fill-17" fill="#4C4C4C"></path>
            <path d="M84.4536,14.4971 C84.2376,12.8671 83.2796,11.7651 81.7456,11.7651 C80.2366,11.7651 79.2536,12.8431 78.9656,14.4971 L84.4536,14.4971 Z M75.3956,15.5751 L75.3956,15.5271 C75.3956,11.8611 78.0076,8.8411 81.7456,8.8411 C86.0356,8.8411 88.0006,12.1721 88.0006,15.8151 C88.0006,16.1021 87.9766,16.4381 87.9526,16.7731 L79.0146,16.7731 C79.3736,18.4271 80.5236,19.2901 82.1536,19.2901 C83.3756,19.2901 84.2616,18.9061 85.2686,17.9721 L87.3536,19.8171 C86.1556,21.3031 84.4296,22.2131 82.1056,22.2131 C78.2466,22.2131 75.3956,19.5051 75.3956,15.5751 L75.3956,15.5751 Z" id="Fill-19" fill="#4C4C4C"></path>
            <path d="M98.6631,14.4971 C98.4471,12.8671 97.4891,11.7651 95.9551,11.7651 C94.4451,11.7651 93.4631,12.8431 93.1751,14.4971 L98.6631,14.4971 Z M89.6041,15.5751 L89.6041,15.5271 C89.6041,11.8611 92.2171,8.8411 95.9551,8.8411 C100.2441,8.8411 102.2101,12.1721 102.2101,15.8151 C102.2101,16.1021 102.1851,16.4381 102.1621,16.7731 L93.2231,16.7731 C93.5831,18.4271 94.7331,19.2901 96.3621,19.2901 C97.5841,19.2901 98.4711,18.9061 99.4781,17.9721 L101.5621,19.8171 C100.3641,21.3031 98.6391,22.2131 96.3151,22.2131 C92.4561,22.2131 89.6041,19.5051 89.6041,15.5751 L89.6041,15.5751 Z" id="Fill-21" fill="#4C4C4C"></path>
            <polygon id="Fill-23" fill="#4C4C4C" points="104.4375 4.4321 108.0805 4.4321 108.0805 13.7541 112.3455 9.0811 116.7075 9.0811 111.8185 14.1381 116.8755 21.9261 112.7055 21.9261 109.3505 16.6781 108.0805 18.0201 108.0805 21.9261 104.4375 21.9261"></polygon>
            <mask id="mask-2" fill="white">
                <use xlink:href="#path-1"></use>
            </mask>
            <g id="Clip-26"></g>
            <polygon id="Fill-25" fill="#D22B2B" mask="url(#mask-2)" points="118.001 21.926 121.883 21.926 121.883 18.091 118.001 18.091"></polygon>
            <path d="M131.4438,18.5952 C134.4638,18.5952 136.5008,16.5582 136.5008,13.5862 L136.5008,13.5382 C136.5008,10.5672 134.4638,8.4822 131.4438,8.4822 L128.5918,8.4822 L128.5918,18.5952 L131.4438,18.5952 Z M124.9018,5.1512 L131.4438,5.1512 C136.7158,5.1512 140.3588,8.7702 140.3588,13.4912 L140.3588,13.5382 C140.3588,18.2592 136.7158,21.9262 131.4438,21.9262 L124.9018,21.9262 L124.9018,5.1512 Z" id="Fill-27" fill="#4C4C4C" mask="url(#mask-2)"></path>
            <path d="M151.2129,14.4971 C150.9969,12.8671 150.0389,11.7651 148.5049,11.7651 C146.9959,11.7651 146.0129,12.8431 145.7249,14.4971 L151.2129,14.4971 Z M142.1549,15.5751 L142.1549,15.5271 C142.1549,11.8611 144.7669,8.8411 148.5049,8.8411 C152.7949,8.8411 154.7599,12.1721 154.7599,15.8151 C154.7599,16.1021 154.7359,16.4381 154.7119,16.7731 L145.7739,16.7731 C146.1329,18.4271 147.2829,19.2901 148.9129,19.2901 C150.1349,19.2901 151.0209,18.9061 152.0279,17.9721 L154.1129,19.8171 C152.9149,21.3031 151.1889,22.2131 148.8649,22.2131 C145.0059,22.2131 142.1549,19.5051 142.1549,15.5751 L142.1549,15.5751 Z" id="Fill-28" fill="#4C4C4C" mask="url(#mask-2)"></path>
            <polygon id="Fill-29" fill="#4C4C4C" mask="url(#mask-2)" points="155.2383 9.0815 159.0973 9.0815 161.9723 17.6845 164.8723 9.0815 168.6583 9.0815 163.6023 22.0215 160.2953 22.0215"></polygon>
            <path d="M178.0034,14.4971 C177.7874,12.8671 176.8294,11.7651 175.2954,11.7651 C173.7854,11.7651 172.8024,12.8431 172.5154,14.4971 L178.0034,14.4971 Z M168.9444,15.5751 L168.9444,15.5271 C168.9444,11.8611 171.5574,8.8411 175.2954,8.8411 C179.5844,8.8411 181.5504,12.1721 181.5504,15.8151 C181.5504,16.1021 181.5254,16.4381 181.5014,16.7731 L172.5634,16.7731 C172.9224,18.4271 174.0734,19.2901 175.7024,19.2901 C176.9244,19.2901 177.8114,18.9061 178.8184,17.9721 L180.9024,19.8171 C179.7044,21.3031 177.9794,22.2131 175.6554,22.2131 C171.7964,22.2131 168.9444,19.5051 168.9444,15.5751 L168.9444,15.5751 Z" id="Fill-30" fill="#4C4C4C" mask="url(#mask-2)"></path>
            <polygon id="Fill-31" fill="#4C4C4C" mask="url(#mask-2)" points="183.945 21.926 187.588 21.926 187.588 4.432 183.945 4.432"></polygon>
            <path d="M200.2163,15.5752 L200.2163,15.5272 C200.2163,13.6342 198.8503,11.9802 196.8373,11.9802 C194.7523,11.9802 193.5063,13.5862 193.5063,15.4792 L193.5063,15.5272 C193.5063,17.4202 194.8723,19.0742 196.8853,19.0742 C198.9703,19.0742 200.2163,17.4682 200.2163,15.5752 M189.9113,15.5752 L189.9113,15.5272 C189.9113,11.8372 192.8833,8.8412 196.8853,8.8412 C200.8633,8.8412 203.8113,11.7892 203.8113,15.4792 L203.8113,15.5272 C203.8113,19.2172 200.8393,22.2132 196.8373,22.2132 C192.8593,22.2132 189.9113,19.2662 189.9113,15.5752" id="Fill-32" fill="#4C4C4C" mask="url(#mask-2)"></path>
            <path d="M215.8154,15.5278 L215.8154,15.4798 C215.8154,13.3468 214.3774,11.9328 212.6754,11.9328 C210.9744,11.9328 209.5604,13.3468 209.5604,15.4798 L209.5604,15.5278 C209.5604,17.6608 210.9744,19.0748 212.6754,19.0748 C214.3774,19.0748 215.8154,17.6838 215.8154,15.5278 L215.8154,15.5278 Z M205.9664,9.0818 L209.6084,9.0818 L209.6084,10.9268 C210.4954,9.7278 211.7174,8.8418 213.6104,8.8418 C216.6064,8.8418 219.4574,11.1898 219.4574,15.4798 L219.4574,15.5278 C219.4574,19.8178 216.6544,22.1658 213.6104,22.1658 C211.6694,22.1658 210.4714,21.2788 209.6084,20.2488 L209.6084,25.7608 L205.9664,25.7608 L205.9664,9.0818 Z" id="Fill-33" fill="#4C4C4C" mask="url(#mask-2)"></path>
            <path d="M230.0972,14.4971 C229.8812,12.8671 228.9232,11.7651 227.3892,11.7651 C225.8792,11.7651 224.8962,12.8431 224.6092,14.4971 L230.0972,14.4971 Z M221.0382,15.5751 L221.0382,15.5271 C221.0382,11.8611 223.6512,8.8411 227.3892,8.8411 C231.6782,8.8411 233.6442,12.1721 233.6442,15.8151 C233.6442,16.1021 233.6192,16.4381 233.5952,16.7731 L224.6572,16.7731 C225.0162,18.4271 226.1672,19.2901 227.7962,19.2901 C229.0182,19.2901 229.9052,18.9061 230.9122,17.9721 L232.9962,19.8171 C231.7982,21.3031 230.0732,22.2131 227.7492,22.2131 C223.8902,22.2131 221.0382,19.5051 221.0382,15.5751 L221.0382,15.5751 Z" id="Fill-34" fill="#4C4C4C" mask="url(#mask-2)"></path>
            <path d="M235.8711,9.0815 L239.5131,9.0815 L239.5131,11.6695 C240.2561,9.8965 241.4541,8.7455 243.6111,8.8415 L243.6111,12.6525 L243.4201,12.6525 C240.9991,12.6525 239.5131,14.1135 239.5131,17.1815 L239.5131,21.9265 L235.8711,21.9265 L235.8711,9.0815 Z" id="Fill-35" fill="#4C4C4C" mask="url(#mask-2)"></path>
            <path d="M244.4023,20.2246 L245.9603,17.8276 C247.3503,18.8346 248.8113,19.3616 250.0103,19.3616 C251.0643,19.3616 251.5433,18.9786 251.5433,18.4026 L251.5433,18.3556 C251.5433,17.5646 250.2973,17.3006 248.8833,16.8696 C247.0863,16.3426 245.0493,15.5036 245.0493,13.0106 L245.0493,12.9636 C245.0493,10.3506 247.1583,8.8886 249.7463,8.8886 C251.3763,8.8886 253.1493,9.4406 254.5393,10.3756 L253.1493,12.8916 C251.8793,12.1486 250.6093,11.6936 249.6743,11.6936 C248.7873,11.6936 248.3323,12.0766 248.3323,12.5796 L248.3323,12.6276 C248.3323,13.3466 249.5543,13.6826 250.9443,14.1616 C252.7413,14.7606 254.8263,15.6236 254.8263,17.9716 L254.8263,18.0196 C254.8263,20.8716 252.6943,22.1656 249.9143,22.1656 C248.1173,22.1656 246.1033,21.5666 244.4023,20.2246" id="Fill-36" fill="#4C4C4C" mask="url(#mask-2)"></path>
        </g>
    </g>
</svg>