<svg xmlns="http://www.w3.org/2000/svg" width="375" height="40" viewBox="0 0 375 40">
    <g fill="none" fill-rule="evenodd">
        <path fill="#FFF" d="M0 17.592V17.5C0 8.43 6.972 1 16.506 1c5.667 0 9.085 1.55 12.369 4.375l-4.363 5.334c-2.429-2.052-4.588-3.236-8.23-3.236-5.038 0-9.041 4.512-9.041 9.937v.09c0 5.835 3.957 10.119 9.535 10.119 2.519 0 4.768-.638 6.521-1.914v-4.559h-6.97v-6.062H30V28.94C26.76 31.722 22.309 34 16.552 34 6.747 34 0 27.027 0 17.592zM51.247 18.997c-.41-3.169-2.235-5.313-5.155-5.313-2.875 0-4.747 2.098-5.293 5.313h10.448zM34 21.093V21c0-7.13 4.973-13 12.092-13C54.259 8 58 14.476 58 21.56c0 .558-.046 1.21-.091 1.863H40.89c.684 3.215 2.874 4.892 5.977 4.892 2.327 0 4.015-.745 5.931-2.562l3.97 3.588C54.487 32.229 51.202 34 46.775 34 39.43 34 34 28.735 34 21.093zM78.248 18.997c-.411-3.169-2.236-5.313-5.157-5.313-2.874 0-4.745 2.098-5.293 5.313h10.45zM61 21.093V21c0-7.13 4.973-13 12.09-13C81.259 8 85 14.476 85 21.56c0 .558-.046 1.21-.09 1.863H67.89c.685 3.215 2.874 4.892 5.977 4.892 2.327 0 4.016-.745 5.932-2.562l3.969 3.588C81.487 32.229 78.202 34 73.776 34 66.43 34 61 28.735 61 21.093zM89 0h7.029v17.585l8.23-8.815h8.417l-9.434 9.538L113 33h-8.047l-6.473-9.9-2.451 2.531V33H89z"/>
        <path fill="#E12229" d="M115 33h7v-7h-7z"/>
        <path fill="#FFF" d="M140.274 26.646c5.666 0 9.487-3.885 9.487-9.555V17c0-5.668-3.821-9.646-9.487-9.646h-5.35v19.292h5.35zM128 1h12.274C150.166 1 157 7.903 157 16.909V17c0 9.005-6.834 16-16.726 16H128V1zM178.247 18.997c-.41-3.169-2.235-5.313-5.155-5.313-2.875 0-4.747 2.098-5.293 5.313h10.448zM161 21.093V21c0-7.13 4.973-13 12.092-13C181.259 8 185 14.476 185 21.56c0 .558-.046 1.21-.091 1.863H167.89c.684 3.215 2.874 4.892 5.977 4.892 2.327 0 4.015-.745 5.931-2.562l3.97 3.588c-2.281 2.888-5.566 4.659-9.993 4.659C166.43 34 161 28.735 161 21.093zM186 9h7.188l5.357 16.62L203.946 9H211l-9.42 25h-6.16zM229.248 18.997c-.411-3.169-2.237-5.313-5.157-5.313-2.874 0-4.746 2.098-5.293 5.313h10.45zM212 21.093V21c0-7.13 4.973-13 12.09-13C232.259 8 236 14.476 236 21.56c0 .558-.046 1.21-.092 1.863H218.89c.684 3.215 2.874 4.892 5.977 4.892 2.327 0 4.015-.745 5.932-2.562l3.969 3.588c-2.281 2.888-5.566 4.659-9.992 4.659C217.43 34 212 28.735 212 21.093zM240 33h7V0h-7zM270.276 21.093v-.092c0-3.682-2.555-6.897-6.32-6.897-3.9 0-6.232 3.122-6.232 6.803V21c0 3.68 2.556 6.895 6.32 6.895 3.901 0 6.232-3.121 6.232-6.803m-19.276 0v-.092C251 13.825 256.559 8 264.045 8 271.486 8 277 13.731 277 20.907V21C277 28.175 271.441 34 263.955 34 256.514 34 251 28.269 251 21.093M300.98 20.646v-.091c0-4.034-2.77-6.708-6.05-6.708-3.278 0-6.003 2.674-6.003 6.708v.091c0 4.034 2.725 6.708 6.003 6.708 3.28 0 6.05-2.63 6.05-6.708zM282 8.453h7.02v3.49C290.727 9.678 293.083 8 296.731 8 302.504 8 308 12.441 308 20.555v.091c0 8.113-5.403 12.556-11.268 12.556-3.741 0-6.05-1.678-7.713-3.628V40H282V8.453zM327.248 18.997c-.411-3.169-2.237-5.313-5.157-5.313-2.874 0-4.746 2.098-5.293 5.313h10.45zM310 21.093V21c0-7.13 4.973-13 12.09-13C330.259 8 334 14.476 334 21.56c0 .558-.046 1.21-.092 1.863H316.89c.684 3.215 2.874 4.892 5.977 4.892 2.327 0 4.015-.745 5.932-2.562l3.969 3.588c-2.281 2.888-5.566 4.659-9.992 4.659C315.43 34 310 28.735 310 21.093zM338 8.469h7.059v4.942c1.44-3.386 3.761-5.583 7.941-5.4v7.277h-.371c-4.69 0-7.57 2.792-7.57 8.65V33H338V8.469zM355 30.345l2.988-4.513c2.667 1.895 5.472 2.888 7.77 2.888 2.024 0 2.943-.722 2.943-1.805v-.09c0-1.489-2.39-1.986-5.103-2.798-3.448-.992-7.356-2.572-7.356-7.265v-.09c0-4.92 4.045-7.672 9.011-7.672 3.127 0 6.529 1.038 9.195 2.798l-2.666 4.738c-2.437-1.398-4.874-2.256-6.667-2.256-1.701 0-2.575.722-2.575 1.67v.09c0 1.354 2.345 1.986 5.012 2.888C371 20.056 375 21.68 375 26.103v.09c0 5.37-4.092 7.807-9.425 7.807-3.448 0-7.31-1.128-10.575-3.655"/>
    </g>
</svg>
