<svg xmlns="http://www.w3.org/2000/svg" xmlns:xlink="http://www.w3.org/1999/xlink" width="167" height="129" viewBox="0 0 167 129">
    <defs>
        <path id="a" d="M166.783 89.152v6.601h-6.6v-6.601h6.6z"/>
    </defs>
    <g fill="none" fill-rule="evenodd">
        <path fill="#0069FF" d="M117.019 20.833a4.044 4.044 0 0 1-5.783.348c-1.691-1.53-1.844-4.168-.342-5.89a4.044 4.044 0 0 1 5.783-.348c1.692 1.53 1.844 4.168.342 5.89m34.12-3.153H133.28C132.243 7.742 123.988 0 113.956 0c-1.59 0-3.129.216-4.609.584a17.83 17.83 0 0 0-7.57 3.793c-.428.351-18.592 18.893-18.592 18.893L62.499 2.901c-1.508-1.535-4.283-1.616-5.792-.08a3.986 3.986 0 0 0 0 5.564l29.33 29.627a3.985 3.985 0 0 1-.05 5.562 3.813 3.813 0 0 1-2.706 1.127 3.81 3.81 0 0 1-2.702-1.134v.015L42.786 6.026c-1.495-1.551-4.159-1.415-5.68.105a3.985 3.985 0 0 0-.052 5.563l48.9 48.7a3.985 3.985 0 0 1-.05 5.563 3.813 3.813 0 0 1-5.462-.051L41.615 27.895a3.812 3.812 0 0 0-5.458-.05 3.984 3.984 0 0 0-.051 5.562L80.14 76.822A3.828 3.828 0 0 0 82.893 78h.003a3.825 3.825 0 0 0 2.752-1.174S127 34.286 127.394 33.828v.009c2.29-2.46 4.075-5.212 5.083-8.29h18.661c2.133 0 3.862-1.76 3.862-3.933s-1.73-3.934-3.862-3.934"/>
        <path fill="#4A4A4A" d="M35.514 100c-1.938 0-3.514 1.598-3.514 3.561v12.702l.01.32C32.126 123.43 37.729 129 44.5 129c6.771 0 12.374-5.57 12.488-12.417l.012-.585v-12.437c0-1.963-1.576-3.561-3.514-3.561a3.36 3.36 0 0 0-2.412 1.002c-.695.704-1.062 1.678-1.03 2.744v12.621c0 3.077-2.487 5.58-5.545 5.58-3.057 0-5.543-2.503-5.543-5.58l.072-12.81c0-1.96-1.576-3.557-3.514-3.557M101.577 128.996c1.888 0 3.423-1.597 3.423-3.56l-.011-13.02C104.877 105.57 99.419 100 92.82 100c-3.141 0-6.127 1.246-8.408 3.509l-.413.41-.413-.41c-2.28-2.263-5.266-3.509-8.408-3.509-6.597 0-12.056 5.57-12.167 12.415L63 113v12.435c0 1.964 1.535 3.561 3.423 3.561.895 0 1.73-.355 2.35-1 .678-.704 1.035-1.68 1.005-2.745v-12.62c0-3.077 2.423-5.58 5.4-5.58 2.98 0 5.402 2.503 5.402 5.58l-.069 12.808c0 1.96 1.535 3.557 3.423 3.557l.191.004a3.219 3.219 0 0 0 2.292-1.006c.677-.703 1.033-1.678 1.003-2.742v-12.62c0-3.078 2.422-5.58 5.401-5.58 2.979 0 5.402 2.502 5.402 5.58l-.07 12.807c0 1.96 1.536 3.557 3.424 3.557M150.577 128.996c1.888 0 3.423-1.597 3.423-3.56l-.01-13.02c-.113-6.846-5.571-12.416-12.168-12.416-3.14 0-6.13 1.246-8.41 3.509l-.412.409-.413-.41c-2.281-2.262-5.267-3.508-8.41-3.508-6.596 0-12.055 5.57-12.167 12.415L112 113v12.435c0 1.964 1.535 3.561 3.422 3.561.894 0 1.729-.355 2.35-1 .677-.705 1.035-1.68 1.005-2.745v-12.62c0-3.077 2.423-5.58 5.4-5.58 2.98 0 5.402 2.503 5.402 5.58l-.069 12.808c0 1.96 1.536 3.557 3.424 3.557l.19.004a3.219 3.219 0 0 0 2.292-1.006c.677-.703 1.033-1.678 1.003-2.742v-12.62c0-3.078 2.424-5.58 5.403-5.58 2.978 0 5.4 2.502 5.4 5.58l-.069 12.807c0 1.96 1.536 3.557 3.424 3.557M21.393 127.804c1.927 0 3.494-1.58 3.494-3.523l-.011-12.88c-.114-6.772-5.683-12.282-12.415-12.282-1.6 0-3.17.31-4.663.92l-.834.339.022-7.71c0-1.941-1.567-3.522-3.493-3.522S0 90.726 0 92.67l.034 31.612c0 1.942 1.566 3.523 3.493 3.523.912 0 1.764-.352 2.398-.99.69-.696 1.056-1.661 1.025-2.716v-12.483c0-3.044 2.472-5.52 5.511-5.52s5.51 2.476 5.51 5.52l-.07 12.67c0 1.938 1.567 3.519 3.492 3.519M163.535 129a3.34 3.34 0 0 0 2.402-1.003c.693-.704 1.057-1.679 1.027-2.744l.036-21.692c0-1.962-1.57-3.561-3.5-3.561s-3.5 1.599-3.5 3.563v14.542l.034.615v6.717c0 1.964 1.57 3.563 3.5 3.563"/>
        <mask id="b" fill="#fff">
            <use xlink:href="#a"/>
        </mask>
        <path fill="#4A4A4A" d="M163.483 89.152c-1.82 0-3.3 1.48-3.3 3.3 0 1.821 1.48 3.301 3.3 3.301 1.82 0 3.3-1.48 3.3-3.3 0-1.82-1.48-3.301-3.3-3.301" mask="url(#b)"/>
    </g>
</svg>
