<svg xmlns="http://www.w3.org/2000/svg" viewBox="0 0 377.79 49.02"><defs><style>.cls-1{fill:#e8f2ee;}.cls-2{fill:#35de7e;}</style></defs><title>logo_DoNations</title><g id="Capa_2" data-name="Capa 2"><g id="Capa_1-2" data-name="Capa 1"><path class="cls-1" d="M0,0H24.34c16,0,21.71,11.87,21.71,24,0,14.77-7.82,24.14-24.61,24.14H0ZM14.83,35.8h5.8c9.24,0,10.59-7.48,10.59-12,0-3-.94-11.46-11.67-11.46H14.83Z"/><path class="cls-1" d="M69.85,49c-13.15,0-19.08-8.7-19.08-18.41s5.93-18.34,19.08-18.34S88.94,20.9,88.94,30.61,83,49,69.85,49Zm0-27c-5.06,0-5.73,4.92-5.73,8.63s.67,8.7,5.73,8.7,5.73-5,5.73-8.7S74.91,22,69.85,22Z"/><path class="cls-2" d="M95.34,34.79h14V48.14h-14Z"/><path class="cls-1" d="M117.52,0H132.7l14,25.76h.13V0h14V48.14H146.45l-14.77-26.3h-.13v26.3h-14Z"/><path class="cls-1" d="M202.55,40.32c0,2.63.13,5.6,1.62,7.82H190.55a9.33,9.33,0,0,1-.47-3.3h-.13C187.11,48.08,183,49,178.68,49c-6.74,0-12.34-3.24-12.34-10.59,0-11.06,12.95-10.65,19.76-11.93,1.82-.34,3.64-.88,3.64-3.1s-2.22-3.24-4.38-3.24c-4.11,0-4.92,2.09-5,3.57H168c.2-4.92,2.63-7.82,6.07-9.44s7.82-2,11.93-2c16.72,0,16.59,6.95,16.59,13.69Zm-12.81-7.89a22.81,22.81,0,0,1-5.26,1.69c-3,.67-4.52,1.42-4.52,3.78,0,1.62,1.75,3.24,4.18,3.24,3,0,5.39-1.82,5.6-5.46Z"/><path class="cls-1" d="M225.68,13.15h7.15v8.23h-7.15v12.2c0,3.24.74,4.65,4.11,4.65a22.94,22.94,0,0,0,3-.2V48.14c-2.7,0-5.73.4-8.56.4-5.66,0-11.93-.88-11.93-10.45V21.38h-5.93V13.15h5.93V2.49h13.35Z"/><path class="cls-1" d="M250.69,9.37H237.34V0h13.35Zm-13.35,3.78h13.35v35H237.34Z"/><path class="cls-1" d="M275.91,49c-13.15,0-19.08-8.7-19.08-18.41s5.93-18.34,19.08-18.34S295,20.9,295,30.61,289.06,49,275.91,49Zm0-27c-5.06,0-5.73,4.92-5.73,8.63s.67,8.7,5.73,8.7,5.73-5,5.73-8.7S281,22,275.91,22Z"/><path class="cls-1" d="M300.79,13.15h12.88V17.6h.14c2.49-3.51,6.07-5.33,11.4-5.33,6.27,0,12,3.84,12,11.87v24H323.85V29.8c0-4-.47-6.88-4.38-6.88-2.29,0-5.33,1.15-5.33,6.74V48.14H300.79Z"/><path class="cls-1" d="M364.71,23.33a3.38,3.38,0,0,0-1.55-2.63,4.65,4.65,0,0,0-3-1c-1.89,0-4,.4-4,2.7,0,1,.81,1.48,1.55,1.82,2.22.94,7.28,1.21,11.73,2.7s8.36,4,8.36,9.78c0,9.71-9.31,12.34-17.8,12.34-8.23,0-17.26-3.3-17.46-12.34h12.74a4.29,4.29,0,0,0,1.62,3.1,5.51,5.51,0,0,0,3.57,1c1.75,0,4.52-.67,4.52-2.7s-1.15-2.63-7.35-3.71c-10.18-1.75-14.29-5-14.29-11,0-8.83,9.51-11.13,16.52-11.13,7.55,0,16.66,2.09,17,11.06Z"/></g></g></svg>