<svg xmlns="http://www.w3.org/2000/svg" viewBox="0 0 688 688"><defs><style>.cls-1{fill:#1f273d;}.cls-2{fill:#2b344d;}.cls-3{fill:#e8f2ee;}.cls-4{fill:#35de7e;}.cls-5{fill:none;}</style></defs><title>DoNations_logo</title><g id="Capa_2" data-name="Capa 2"><g id="Capa_2-2" data-name="Capa 2"><path class="cls-1" d="M660.84,432.71V255.29A163.18,163.18,0,0,0,579.25,114L425.59,25.26a163.18,163.18,0,0,0-163.18,0L108.75,114A163.18,163.18,0,0,0,27.16,255.29V432.71A163.18,163.18,0,0,0,108.75,574l153.66,88.71a163.18,163.18,0,0,0,163.18,0L579.25,574A163.18,163.18,0,0,0,660.84,432.71Z"/><path class="cls-2" d="M579.25,114,425.59,25.26a163.18,163.18,0,0,0-163.18,0L108.75,114A163.16,163.16,0,0,0,27.2,253.27c1.65-40.5,52.73-73,115.51-73,43.11,0,80.71,15.33,100.57,38.05L444.72,469.68c19.86,22.72,57.46,38.05,100.57,38.05,63.79,0,115.51-33.56,115.55-75V255.29A163.18,163.18,0,0,0,579.25,114Z"/><path class="cls-3" d="M114.59,242.32h-29A3.65,3.65,0,0,0,82,246V346.73a3.65,3.65,0,0,0,3.65,3.65h30a54,54,0,0,0,54-53C170.25,267.11,144.88,242.32,114.59,242.32Zm1.42,82.8h-9.12V267.58H116a28.77,28.77,0,0,1,0,57.54Z"/><path class="cls-3" d="M217.31,265.13h0a41.4,41.4,0,0,0-41.4,41.4v4.9a41.4,41.4,0,0,0,41.4,41.4h0a41.4,41.4,0,0,0,41.4-41.4v-4.9A41.4,41.4,0,0,0,217.31,265.13ZM233.8,311.9c0,10.85-6.08,19.64-16.49,19.64s-16.49-8.79-16.49-19.64V306c0-10.85,6.08-19.64,16.49-19.64S233.8,295.2,233.8,306Z"/><circle class="cls-4" cx="273.25" cy="337.92" r="14.24"/><path class="cls-3" d="M144.77,370.72v58.19l-34.89-60a3.65,3.65,0,0,0-3.16-1.82H85.62A3.65,3.65,0,0,0,82,370.72V471.48a3.65,3.65,0,0,0,3.65,3.65h17.61a3.65,3.65,0,0,0,3.65-3.65V413.29l34.89,60a3.65,3.65,0,0,0,3.16,1.82H166a3.65,3.65,0,0,0,3.65-3.65V370.72a3.65,3.65,0,0,0-3.65-3.65H148.42A3.65,3.65,0,0,0,144.77,370.72Z"/><path class="cls-3" d="M403,389.88h0a41.4,41.4,0,0,0-41.4,41.4v4.9a41.4,41.4,0,0,0,41.4,41.4h0a41.4,41.4,0,0,0,41.4-41.4v-4.9A41.4,41.4,0,0,0,403,389.88Zm16.49,46.77c0,10.85-6.08,19.64-16.49,19.64s-16.49-8.79-16.49-19.64V430.8c0-10.85,6.08-19.64,16.49-19.64S419.5,420,419.5,430.8Z"/><path class="cls-3" d="M498.75,389.88a32,32,0,0,0-23.22,9.47V396a3.65,3.65,0,0,0-3.65-3.65H454.26a3.65,3.65,0,0,0-3.65,3.65v75.5a3.65,3.65,0,0,0,3.65,3.65h17.61a3.65,3.65,0,0,0,3.65-3.65V426.16a15,15,0,0,1,15-15h0a15,15,0,0,1,15,15v45.32a3.65,3.65,0,0,0,3.65,3.65h17.61a3.65,3.65,0,0,0,3.65-3.65V422.74C530.43,405,516.44,390.12,498.75,389.88Z"/><path class="cls-3" d="M230.83,396h0c-13.83-10.28-34-9.06-48.15,15.3a52.5,52.5,0,0,0-6.76,25.24c-.5,27.84,14.39,41.06,32.13,41.06a32,32,0,0,0,22.78-9.47v3.38a3.65,3.65,0,0,0,3.65,3.65h17.61a3.65,3.65,0,0,0,3.65-3.65V396a3.65,3.65,0,0,0-3.65-3.65H234.48A3.65,3.65,0,0,0,230.83,396Zm0,45.31a15,15,0,0,1-15,15c-8.28,0-15-5.56-15-17.08,0-16.8,10.29-31.9,30-28.05Z"/><path class="cls-3" d="M543.2,433.73a31.37,31.37,0,0,0,11.35,7.19c9.53,3.53,16.73,4.38,22.36,6.53a5.05,5.05,0,0,1-.88,9.64c-6.28,1.18-14.51-2-18.56-5.42a3.62,3.62,0,0,0-4.18-.32L540.41,459a3.66,3.66,0,0,0-.78,5.67c7.52,7.92,17.72,12.94,32.58,12.94,20,0,33.86-11.33,33.86-26.37,0-6.69-2.11-12.82-6.69-17.48A31.37,31.37,0,0,0,588,426.54c-9.53-3.53-16.73-4.38-22.36-6.53a5.05,5.05,0,0,1,.88-9.64c6.28-1.18,14.51,2,18.56,5.42a3.62,3.62,0,0,0,4.18.32l12.88-7.64a3.66,3.66,0,0,0,.78-5.67c-7.52-7.92-17.72-12.94-32.58-12.94-20,0-33.86,11.33-33.86,26.37C536.51,422.93,538.62,429.06,543.2,433.73Z"/><path class="cls-3" d="M334.15,475.13h17.61a3.65,3.65,0,0,0,3.65-3.65V396a3.65,3.65,0,0,0-3.65-3.65H334.15A3.65,3.65,0,0,0,330.5,396v75.5A3.65,3.65,0,0,0,334.15,475.13Zm8.8-93.82a14.24,14.24,0,1,0-14.24-14.24A14.24,14.24,0,0,0,343,381.31Z"/><path class="cls-3" d="M320.59,392.33H299.33V370.72a3.65,3.65,0,0,0-3.65-3.65h-4.92a3.61,3.61,0,0,0-3.61,3.12,25.51,25.51,0,0,1-22.07,22.06,3.61,3.61,0,0,0-3.12,3.61V410a3.65,3.65,0,0,0,3.65,3.65h8.81v31.84a32.17,32.17,0,0,0,32.13,32.13h0a32,32,0,0,0,15.84-4.17,3.67,3.67,0,0,0,1.85-3.19v-11a3.64,3.64,0,0,0-4.18-3.61,39.45,39.45,0,0,1-5.73.43h0a15,15,0,0,1-15-15V413.62h21.26a3.65,3.65,0,0,0,3.65-3.65V396A3.65,3.65,0,0,0,320.59,392.33Z"/><rect class="cls-5" width="688" height="688"/></g></g></svg>