<svg xmlns="http://www.w3.org/2000/svg" xmlns:xlink="http://www.w3.org/1999/xlink" width="360" height="44" viewBox="0 0 360 44">
    <defs>
        <path id="a" d="M27.295.202H.302V35.97h26.993V.202z"/>
        <path id="c" d="M7.773.202H.486v35.575h7.287z"/>
        <path id="e" d="M.101 34.138h26.994V0H.1z"/>
        <path id="g" d="M0 8.006V.324h8.946v7.682H0z"/>
        <path id="i" d="M40.29 27.279V.137H.067V27.28H40.29z"/>
    </defs>
    <g fill="none" fill-rule="evenodd">
        <path fill="#231F20" d="M88.414 20.942c-.432-3.26-2.35-5.466-5.418-5.466-3.02 0-4.986 2.158-5.562 5.466h10.98zM83.715 36.38c-7.719 0-13.424-5.418-13.424-13.28v-.096c0-7.336 5.226-13.377 12.705-13.377 8.582 0 12.37 7.048 12.37 12.37 0 2.11-1.487 3.5-3.405 3.5h-14.43c.718 3.308 3.02 5.033 6.28 5.033 2.013 0 3.692-.622 5.178-1.725.527-.384 1.007-.575 1.774-.575 1.63 0 2.829 1.246 2.829 2.876a2.86 2.86 0 0 1-.96 2.158c-2.252 1.918-5.177 3.116-8.917 3.116z"/>
        <g transform="translate(98.276 .315)">
            <mask id="b" fill="#fff">
                <use xlink:href="#a"/>
            </mask>
            <path fill="#231F20" d="M7.59 22.592v.096c0 4.268 2.876 7.096 6.28 7.096 3.404 0 6.233-2.828 6.233-7.096v-.096c0-4.266-2.829-7.096-6.233-7.096-3.404 0-6.28 2.781-6.28 7.096zm19.705 9.542a3.642 3.642 0 0 1-3.644 3.643 3.642 3.642 0 0 1-3.644-3.643v-.336c-1.773 2.398-4.219 4.171-8.006 4.171C6.007 35.97.302 31.271.302 22.69v-.097c0-8.582 5.61-13.28 11.699-13.28 3.883 0 6.28 1.774 8.006 3.835V3.846A3.642 3.642 0 0 1 23.651.202a3.642 3.642 0 0 1 3.644 3.644v28.288z" mask="url(#b)"/>
        </g>
        <path fill="#231F20" d="M131.228 13.463a3.643 3.643 0 0 1 3.644-3.644 3.642 3.642 0 0 1 3.643 3.644v18.986a3.641 3.641 0 0 1-3.643 3.643 3.642 3.642 0 0 1-3.644-3.643V13.463zm-.432-9.494c0-2.11 1.774-3.404 4.076-3.404 2.3 0 4.075 1.294 4.075 3.404v.096c0 2.11-1.774 3.452-4.075 3.452-2.302 0-4.076-1.342-4.076-3.452v-.096zM159.371 26.744v-1.296c-1.246-.575-2.877-.958-4.65-.958-3.117 0-5.035 1.246-5.035 3.548v.096c0 1.965 1.63 3.116 3.98 3.116 3.404 0 5.705-1.87 5.705-4.506m-16.733 1.677v-.095c0-5.61 4.268-8.2 10.357-8.2 2.588 0 4.458.432 6.28 1.056v-.432c0-3.02-1.87-4.698-5.513-4.698-2.014 0-3.644.287-5.035.719-.432.143-.72.191-1.054.191-1.679 0-3.022-1.294-3.022-2.972a3.02 3.02 0 0 1 1.966-2.829c2.302-.863 4.795-1.342 8.2-1.342 3.978 0 6.855 1.054 8.678 2.876 1.917 1.918 2.78 4.747 2.78 8.199v11.698c0 1.966-1.582 3.5-3.548 3.5-2.11 0-3.5-1.486-3.5-3.02v-.048c-1.774 1.966-4.219 3.26-7.767 3.26-4.843 0-8.822-2.78-8.822-7.863"/>
        <g transform="translate(171.207 .315)">
            <mask id="d" fill="#fff">
                <use xlink:href="#c"/>
            </mask>
            <path fill="#231F20" d="M.486 3.846A3.643 3.643 0 0 1 4.13.202a3.642 3.642 0 0 1 3.643 3.644v28.288a3.641 3.641 0 0 1-3.643 3.643 3.642 3.642 0 0 1-3.644-3.643V3.846z" mask="url(#d)"/>
        </g>
        <path fill="#231F20" d="M204.007 23.1v-.097c0-3.787-2.733-7.095-6.76-7.095-4.172 0-6.665 3.212-6.665 7v.095c0 3.789 2.733 7.096 6.76 7.096 4.172 0 6.665-3.212 6.665-7m-20.616 0v-.096c0-7.383 5.945-13.377 13.952-13.377 7.958 0 13.855 5.899 13.855 13.282v.095c0 7.385-5.944 13.377-13.951 13.377-7.96 0-13.856-5.897-13.856-13.28"/>
        <g transform="translate(215.172 9.626)">
            <mask id="f" fill="#fff">
                <use xlink:href="#e"/>
            </mask>
            <path fill="#231F20" d="M19.807 13.378v-.096c0-4.266-2.877-7.096-6.281-7.096s-6.233 2.83-6.233 7.096v.096c0 4.267 2.829 7.096 6.233 7.096 3.404 0 6.28-2.78 6.28-7.096zM.1 3.837A3.643 3.643 0 0 1 3.745.193 3.643 3.643 0 0 1 7.39 3.837v.336C9.163 1.776 11.608 0 15.396 0c5.993 0 11.699 4.699 11.699 13.28v.097c0 8.582-5.61 13.28-11.7 13.28-3.883 0-6.28-1.773-8.006-3.835v7.672a3.642 3.642 0 0 1-3.644 3.643 3.642 3.642 0 0 1-3.644-3.643V3.837z" mask="url(#f)"/>
        </g>
        <path fill="#231F20" d="M16.897 8.452A4.502 4.502 0 0 1 21.4 3.948a4.502 4.502 0 0 1 4.503 4.504v.355c2.074-2.666 4.8-5.095 9.362-5.095 4.148 0 7.288 1.836 8.948 5.036 2.784-3.26 6.102-5.036 10.428-5.036 6.696 0 10.725 4.029 10.725 11.673v16.531a4.5 4.5 0 0 1-4.503 4.503 4.5 4.5 0 0 1-4.504-4.503v-13.57c0-4.265-1.896-6.458-5.273-6.458s-5.452 2.193-5.452 6.459v13.57a4.5 4.5 0 0 1-4.503 4.502 4.5 4.5 0 0 1-4.503-4.503v-13.57c0-4.265-1.896-6.458-5.274-6.458-3.377 0-5.45 2.193-5.45 6.459v13.57a4.5 4.5 0 0 1-4.504 4.502 4.5 4.5 0 0 1-4.503-4.503V8.452z"/>
        <g transform="translate(0 28.246)">
            <mask id="h" fill="#fff">
                <use xlink:href="#g"/>
            </mask>
            <path fill="#E33263" d="M5.104 8.006H3.841A3.853 3.853 0 0 1 0 4.166 3.853 3.853 0 0 1 3.84.323h1.264a3.853 3.853 0 0 1 3.842 3.841 3.853 3.853 0 0 1-3.841 3.841" mask="url(#h)"/>
        </g>
        <path fill="#E5B44A" d="M21.4 36.419a4.517 4.517 0 0 1-4.504-4.503v-4.082a4.517 4.517 0 0 1 4.504-4.503 4.517 4.517 0 0 1 4.504 4.503v4.082a4.517 4.517 0 0 1-4.504 4.503"/>
        <path fill="#5FA099" d="M41.129 36.419a4.513 4.513 0 0 1-4.501-4.5v-10.5c0-2.476 2.025-4.501 4.5-4.501 2.476 0 4.501 2.025 4.501 4.5v10.5c0 2.476-2.025 4.5-4.5 4.5"/>
        <path fill="#139AD6" d="M60.862 36.419a4.516 4.516 0 0 1-4.503-4.503V14.439a4.516 4.516 0 0 1 4.503-4.503 4.516 4.516 0 0 1 4.503 4.503v17.477a4.516 4.516 0 0 1-4.503 4.503"/>
        <path fill="#231F20" d="M250.345 27.93c2.459 0 4.278 1.82 4.278 4.18v.098c0 2.36-1.82 4.18-4.278 4.18-2.458 0-4.278-1.82-4.278-4.18v-.099c0-2.36 1.82-4.179 4.278-4.179M258.458 23.062v-.098c0-7.523 5.754-13.718 13.817-13.718 3.983 0 6.786 1.081 8.998 2.95.492.393 1.18 1.278 1.18 2.557 0 1.868-1.524 3.343-3.392 3.343-.983 0-1.721-.393-2.164-.737-1.327-1.033-2.704-1.672-4.67-1.672-3.737 0-6.393 3.294-6.393 7.179v.098c0 4.032 2.606 7.277 6.687 7.277 1.967 0 3.492-.688 4.917-1.82.394-.294 1.131-.688 2.016-.688 1.77 0 3.147 1.427 3.147 3.197 0 .983-.443 1.77-1.081 2.36-2.213 2.015-5.016 3.392-9.343 3.392-7.916 0-13.719-6.097-13.719-13.62M306.94 23.062v-.098c0-3.884-2.802-7.277-6.932-7.277-4.278 0-6.835 3.294-6.835 7.179v.098c0 3.885 2.803 7.277 6.932 7.277 4.279 0 6.835-3.294 6.835-7.179m-21.143 0v-.098c0-7.572 6.097-13.718 14.308-13.718 8.163 0 14.211 6.047 14.211 13.62v.098c0 7.572-6.097 13.718-14.308 13.718-8.163 0-14.211-6.047-14.211-13.62"/>
        <g transform="translate(319.655 9.108)">
            <mask id="j" fill="#fff">
                <use xlink:href="#i"/>
            </mask>
            <path fill="#231F20" d="M.068 4.07A3.735 3.735 0 0 1 3.805.335 3.735 3.735 0 0 1 7.542 4.07v.295C9.263 2.153 11.524.137 15.312.137c3.44 0 6.047 1.524 7.424 4.18C25.046 1.611 27.8.136 31.39.136c5.556 0 8.9 3.344 8.9 9.687v13.718a3.736 3.736 0 0 1-3.738 3.737 3.735 3.735 0 0 1-3.736-3.737v-11.26c0-3.54-1.574-5.36-4.376-5.36-2.803 0-4.524 1.82-4.524 5.36v11.26a3.735 3.735 0 0 1-3.737 3.737 3.735 3.735 0 0 1-3.737-3.737v-11.26c0-3.54-1.574-5.36-4.376-5.36-2.803 0-4.524 1.82-4.524 5.36v11.26a3.735 3.735 0 0 1-3.737 3.737 3.735 3.735 0 0 1-3.737-3.737V4.071z" mask="url(#j)"/>
        </g>
    </g>
</svg>
