<svg xmlns="http://www.w3.org/2000/svg" width="301" height="111" viewBox="0 0 301 111">
    <g fill="none" fill-rule="evenodd">
        <path fill="#757575" d="M142 7h11.625l11.01 46.653V7h10.763v80.432h-11.625l-10.599-45.176v45.176H142zM186 7h30.151v11.438h-18.526v23.04h15.939v11.477h-15.939v23.041h18.526v11.436H186zM236.625 18.438v23.038h2.671c1.616 0 2.724-.108 3.326-.328 2.11-.847 3.163-2.556 3.163-5.124V23.93c0-3.663-1.684-5.492-5.052-5.492h-4.108zM225 7h16.924c10.323.026 15.488 5.671 15.488 16.93v12.094c0 7.079-3.057 11.738-9.162 13.98l13.063 37.428h-12.735l-10.474-35.377-1.479.203v35.174H225V7zM278.625 18.438v57.558h5.093c3.367 0 5.055-1.818 5.055-5.453V23.93c0-3.663-1.688-5.492-5.055-5.492h-5.093zM267 7h17.91c10.325.026 15.488 5.671 15.488 16.93v46.613c0 11.232-5.41 16.86-16.227 16.89H267V7zM141 93h2.814l2.665 9.982V93h2.604v17.205h-2.814l-2.565-9.664v9.664H141zM170.083 106.872c0 2.407-1.35 3.612-4.047 3.62-2.691 0-4.036-1.205-4.036-3.62V93h2.814v13.872c0 .774.406 1.158 1.222 1.158.823 0 1.233-.384 1.233-1.158V93h2.814v13.872zM190.085 93v2.442h-2.635v14.763h-2.814V95.442H182V93zM203.814 95.442v4.932h.645c.392 0 .66-.025.806-.07.51-.179.765-.547.765-1.101v-2.58c0-.788-.406-1.181-1.222-1.181h-.994zM201 93h4.095c2.5 0 3.749 1.21 3.749 3.623v2.58c0 1.515-.739 2.513-2.216 2.995l3.16 8.007h-3.08l-2.537-7.571-.357.05v7.521H201V93zM222 110.205h2.814V93H222zM244.085 93v2.442h-2.635v14.763h-2.814V95.442H236V93zM256 110.205h2.814V93H256zM277.269 96.61c0-.773-.406-1.16-1.225-1.16h-.016c-.81 0-1.214.387-1.214 1.16v10.528c0 .774.406 1.16 1.222 1.16.823 0 1.233-.386 1.233-1.16V96.61zm2.814 10.528c0 2.407-1.35 3.613-4.047 3.621-2.691 0-4.036-1.207-4.036-3.62V96.61c0-2.409 1.345-3.61 4.036-3.61 2.698 0 4.047 1.201 4.047 3.61v10.528zM292 93h2.814l2.665 9.982V93h2.604v17.205h-2.814l-2.565-9.664v9.664H292z"/>
        <path fill="#A21C2C" d="M77.654 63.933c-5.688 2.596-8.721 8.683-7.74 15.53a679.863 679.863 0 0 0-10.492 6.027c-3.764-3.124-7.262-4.68-10.838-4.68-3.35 0-6.769 1.362-10.543 4.079a289.98 289.98 0 0 0-2.697-1.542c-.769-.435-1.538-.871-2.305-1.313a49.23 49.23 0 0 0-.89-.505c-2.862-1.607-3.22-1.927-3.117-3.873.327-6.091-3.898-11.547-10.514-13.587 0-.04 0-.085.002-.132.098-4.519.1-9.296.008-15.035l-.002-.108h.002c7.557-2.928 11.055-8.353 10.678-16.58 3.774-2.148 7.22-4.117 10.624-6.137 6.008 3.93 12.487 3.826 18.368-.296.376.228.749.456 1.124.687 1.875 1.148 3.815 2.337 5.902 3.366 3.827 1.883 4.927 3.113 5.11 5.718.34 4.785 3.684 8.882 8.942 10.957.355.141.542.253.628.314.024.126.057.424.016 1.006-.159 2.25-.161 9.487-.002 11.088.339 3.435-.159 4.054-2.264 5.016m10.742-5.849l-4.239.418 4.24-.424c-.099-1.026-.121-7.638.022-9.65.336-4.812-1.683-8.117-6.008-9.826-1.65-.651-3.458-1.953-3.578-3.65-.51-7.195-5.03-10.378-9.839-12.744-1.736-.854-3.425-1.89-5.214-2.988-.553-.338-1.104-.676-1.657-1.008-3.647-2.197-6.644-1-8.517.391-3.23 2.401-6.142 2.442-9.445.133-2.597-1.817-5.392-1.929-8.078-.328-3.697 2.201-7.448 4.343-11.622 6.72-3.403 1.942-3.94 4.9-3.79 7.035.33 4.804-1.037 7.08-5.225 8.704-3.674 1.423-5.502 4.174-5.435 8.174.09 5.626.088 10.302-.008 14.708-.096 4.356 1.912 7.193 5.97 8.435 2.188.668 4.693 2.385 4.553 5.02-.39 7.337 4.326 9.986 7.45 11.737.265.149.534.3.801.454.786.454 1.573.9 2.36 1.346a248.2 248.2 0 0 1 3.322 1.906c1.889 1.11 4.835 1.913 8.15-.558 5.08-3.79 7.193-3.72 11.91.4 1.643 1.435 3.235 1.942 4.665 1.94 1.407 0 2.656-.49 3.643-1.073 3.497-2.06 7.301-4.25 11.632-6.687 2.165-1.22 4.598-3.662 3.894-8.372-.173-1.17-.481-5.115 2.842-6.63 7.244-3.307 7.654-8.997 7.201-13.583M7.74 76.001c-1.921-.038-3.861.75-5.348 2.177C.902 79.606.032 81.52 0 83.428c-.03 1.955.834 3.965 2.372 5.514 1.481 1.491 3.389 2.342 5.241 2.342h.047c4.031-.028 7.46-3.537 7.487-7.66.03-4.246-3.154-7.523-7.407-7.623M7.614 36.285h.047c4.031-.03 7.46-3.54 7.487-7.66.028-4.247-3.156-7.523-7.407-7.623-1.91-.049-3.862.747-5.35 2.175-1.488 1.427-2.36 3.342-2.39 5.25-.033 1.955.832 3.967 2.372 5.516 1.481 1.49 3.389 2.342 5.241 2.342M49.614 15.285h.047c4.03-.03 7.458-3.54 7.489-7.66.028-4.245-3.156-7.523-7.41-7.623-1.913-.047-3.861.747-5.348 2.175-1.49 1.43-2.36 3.341-2.391 5.252-.033 1.954.832 3.964 2.372 5.514 1.481 1.49 3.389 2.342 5.241 2.342M49.743 95.002c-1.904-.041-3.862.747-5.351 2.174-1.487 1.428-2.36 3.342-2.391 5.25-.03 1.955.834 3.965 2.372 5.515 1.481 1.49 3.389 2.341 5.241 2.341h.047c4.031-.028 7.46-3.537 7.489-7.658.03-4.246-3.154-7.523-7.407-7.622M93.743 74.002c-1.912-.043-3.862.747-5.351 2.174-1.487 1.428-2.36 3.342-2.391 5.25-.03 1.955.834 3.965 2.372 5.515 1.481 1.49 3.389 2.342 5.241 2.342h.047c4.031-.029 7.46-3.538 7.489-7.66.03-4.245-3.154-7.522-7.407-7.621M93.743 21.002c-1.91-.043-3.862.747-5.351 2.177-1.487 1.427-2.36 3.34-2.391 5.247-.03 1.957.834 3.967 2.374 5.517 1.481 1.49 3.389 2.342 5.24 2.342h.046c4.029-.031 7.46-3.538 7.49-7.661.027-4.246-3.157-7.523-7.408-7.622"/>
    </g>
</svg>
