<svg xmlns="http://www.w3.org/2000/svg" width="204" height="202" viewBox="0 0 204 202">
    <g fill="#4A4A4A" fill-rule="evenodd">
        <path d="M12.068 65.707l-.016-.006c-1.53-.676-2.437-2.403-1.893-4.032.27-.812.646-1.265 1.17-1.602a.485.485 0 0 1 .455-.02c.258.112.406.418.319.68a.461.461 0 0 1-.206.245c-.377.234-.675.535-.868 1.124-.335.995.293 2.142 1.341 2.6l.015.008c1.123.495 2.196.127 2.566-.977.17-.509.16-1.046.023-1.488l-1.024-.45-.355 1.066a.402.402 0 0 1-.557.241.508.508 0 0 1-.279-.61l.504-1.506c.09-.27.37-.385.643-.266l1.46.644c.273.12.432.314.5.6.155.6.22 1.373-.052 2.185-.565 1.691-2.153 2.266-3.746 1.564M19.848 49.38l-.016-.01c-1.012-.596-2.203-.41-2.691.544-.488.956-.002 2.11 1.012 2.707l.014.008c1.013.597 2.197.407 2.684-.549.487-.956.01-2.105-1.003-2.7m-2.12 4.145l-.013-.008c-1.468-.865-2.162-2.633-1.406-4.11.754-1.479 2.495-1.796 3.961-.932l.016.01c1.467.862 2.161 2.63 1.405 4.109-.754 1.48-2.494 1.794-3.963.93M24.412 41.318l-2.2-1.725c-.215-.17-.277-.462-.136-.665.137-.197.418-.22.634-.05l2.169 1.702c.824.646 1.533.6 1.976-.038.442-.634.3-1.346-.519-1.988l-2.2-1.726c-.214-.169-.277-.462-.136-.665.137-.197.419-.218.634-.048l2.162 1.694c1.326 1.041 1.514 2.249.774 3.311-.734 1.057-1.87 1.209-3.158.198M33.563 30.635c.458-.447.459-.989.014-1.39l-.013-.011c-.473-.424-1.012-.383-1.486.078l-.935.903 1.48 1.33.94-.91zm-3.376-.079c-.22-.197-.25-.488-.067-.665l1.304-1.263c.458-.446.982-.647 1.493-.627.435.028.87.216 1.255.56l.012.012c.704.633.795 1.346.488 1.985l1.762.278c.157.024.28.058.401.164.214.192.207.47.051.62-.147.144-.322.16-.515.124l-2.253-.368-.807.785 1.184 1.061c.214.193.241.483.066.654-.184.178-.494.161-.707-.032l-3.667-3.288zM39.123 21.573c-.171-.242-.165-.573.028-.743l.072-.062c.148-.132.317-.12.48-.041l2.849 1.344-.51-3.414c-.035-.213.008-.378.145-.5l.07-.062c.195-.172.485-.102.658.141l2.963 4.187c.173.243.162.567-.032.737-.18.16-.478.096-.645-.14l-2.124-3 .358 2.665c.03.206 0 .37-.126.48-.12.108-.27.1-.442.02l-2.228-.998 2.121 2.995c.172.243.155.56-.032.725-.189.165-.464.105-.634-.137l-2.971-4.197zM53.57 17.708l-2.485-4.375c-.15-.267-.097-.575.123-.71l2.56-1.574c.188-.114.454-.022.585.204.132.238.078.516-.111.632l-2.176 1.337.785 1.383 1.893-1.163c.189-.117.453-.022.587.212.13.228.077.507-.112.623l-1.895 1.162.81 1.43 2.21-1.356c.188-.116.452-.022.582.206.133.234.08.513-.109.63l-2.591 1.59c-.22.136-.507.037-.656-.23M62.987 7.707l-1.287.476a.539.539 0 0 1-.648-.268c-.119-.233-.029-.498.214-.587l3.516-1.3c.234-.087.523.039.642.271.118.232.028.498-.206.585l-1.295.476 2.022 3.977c.13.255.022.537-.237.631a.584.584 0 0 1-.702-.285l-2.02-3.976zM118.245 4.624a.43.43 0 0 1-.104-.393.482.482 0 0 1 .547-.365c.133.022.21.075.263.13.368.43.802.71 1.39.81.589.098 1.023-.118 1.114-.518l.005-.016c.087-.386-.083-.63-1.037-1.03-1.09-.47-1.664-.917-1.438-1.912l.003-.016c.208-.925 1.13-1.436 2.205-1.257.683.115 1.192.382 1.606.788a.41.41 0 0 1 .123.413.483.483 0 0 1-.547.366.442.442 0 0 1-.233-.111c-.358-.34-.73-.546-1.154-.619-.56-.091-.948.14-1.028.495l-.004.015c-.094.417.111.642 1.102 1.064 1.081.47 1.577.976 1.374 1.87l-.002.015c-.23 1.01-1.164 1.48-2.304 1.29a3.248 3.248 0 0 1-1.882-1.019M132.999 6.517l-.1-2.375-1.664 1.85 1.764.525zm-3.833.503l3.468-3.778c.184-.202.417-.29.668-.216l.045.012c.252.075.37.268.384.53l.265 4.888c.01.078 0 .149-.021.208-.091.249-.343.388-.58.318-.207-.063-.305-.233-.31-.449l-.049-1.1-2.44-.726-.796.883a.487.487 0 0 1-.519.17c-.229-.069-.339-.31-.25-.547a.584.584 0 0 1 .135-.193zM143.128 7.315c.12-.259.388-.385.607-.275l.08.042c.187.095.24.263.273.476l.584 4.547 1.518-3.26c.116-.25.38-.369.585-.264.214.108.286.4.17.649l-2.078 4.457c-.118.258-.376.381-.589.274l-.03-.018c-.181-.092-.241-.262-.27-.483l-.6-4.677-1.568 3.366c-.117.25-.38.37-.585.264-.214-.108-.286-.398-.17-.647l2.073-4.451zM153.964 17.808c.913.57 1.982.27 2.64-.655l.01-.014c.655-.925.544-1.978-.37-2.547l-.855-.534-2.281 3.217.856.533zm.9-4.563c.168-.236.465-.314.684-.179l1.234.77c1.367.85 1.587 2.458.642 3.789l-.01.014c-.945 1.331-2.62 1.778-3.987.926l-1.235-.77c-.217-.135-.256-.422-.087-.657l2.76-3.893zM165.23 21.356a.613.613 0 0 1 .11-.175c.19-.214.495-.238.681-.073.162.147.18.377.076.58l-1.844 3.813 3.564-2.251c.22-.136.446-.159.615-.009l.047.045c.169.15.175.383.061.608l-1.849 3.787 3.598-2.255c.19-.114.413-.132.576.013.177.16.184.46-.003.668a.663.663 0 0 1-.172.128l-4.404 2.651c-.234.142-.47.157-.634.011l-.066-.059c-.162-.144-.175-.372-.053-.627l1.734-3.638-3.428 2.123c-.242.149-.473.155-.637.011l-.065-.06c-.164-.143-.177-.37-.06-.63l2.153-4.66zM177.177 32.133c.23-.177.546-.179.72.004.172.179.123.463-.106.641l-3.968 3.087c-.231.179-.548.18-.718.002-.173-.183-.127-.466.103-.647l3.969-3.087zM180.486 41.679l.012-.011c1.407-1.017 3.171-.887 4.042.487.444.7.51 1.323.43 1.96a.602.602 0 0 1-.248.406c-.24.174-.533.131-.674-.087a.463.463 0 0 1-.068-.303c.079-.511.033-.97-.24-1.405-.548-.861-1.729-.934-2.696-.233l-.014.011c-.968.702-1.352 1.898-.8 2.768.303.478.68.678 1.191.79a.37.37 0 0 1 .251.168c.127.2.055.51-.164.667a.503.503 0 0 1-.392.095c-.682-.13-1.244-.432-1.707-1.164-.84-1.322-.342-3.12 1.077-4.15M188.79 51.062c.26-.126.554-.054.668.17.112.216-.004.488-.264.616l-1.792.868 1.096 2.131 1.793-.868c.258-.126.554-.055.664.162.116.223-.001.495-.262.623l-4.485 2.175c-.26.125-.553.052-.669-.17-.11-.218.006-.49.265-.614l1.823-.886-1.095-2.13-1.822.885c-.261.126-.555.053-.665-.164-.116-.224 0-.496.26-.621l4.486-2.177zM77.894 191.027c.998.253 1.846-.371 2.117-1.462l.004-.015c.27-1.088-.181-2.056-1.18-2.307l-.94-.236-.94 3.784.939.236zm-.736-4.628c.068-.278.306-.448.544-.387l1.354.34c1.495.376 2.23 1.836 1.84 3.402l-.005.016c-.388 1.566-1.723 2.524-3.22 2.149l-1.353-.341c-.238-.06-.37-.32-.3-.6l1.14-4.579zM89.005 194.11l.641-4.656a.527.527 0 0 1 .583-.451l3.372.332a.436.436 0 0 1 .395.488.474.474 0 0 1-.518.4l-2.866-.282-.204 1.472 2.495.245c.25.025.429.247.394.498a.471.471 0 0 1-.517.39l-2.492-.245-.21 1.521 2.909.286c.25.026.428.248.393.49a.474.474 0 0 1-.517.4l-3.414-.335a.481.481 0 0 1-.444-.552M101 189.519c0-.29.218-.519.5-.519.273 0 .49.23.492.518l.001 4.529h2.556c.25 0 .451.21.451.475a.463.463 0 0 1-.45.478h-3.046c-.282.001-.5-.23-.5-.527l-.004-4.954zM112.005 189.568c-.044-.287.19-.536.541-.565.341-.028.647.177.69.463l.759 4.966c.044.287-.191.538-.528.565-.352.028-.659-.178-.701-.465l-.76-4.964zM124.163 192.705l-3.036-4.108a.594.594 0 0 1-.111-.216.448.448 0 0 1 .35-.563c.244-.049.442.059.572.246l2.561 3.622.533-4.274a.46.46 0 0 1 .369-.402.505.505 0 0 1 .585.365c.019.07.016.154.007.212l-.7 4.893c-.038.26-.175.444-.442.496l-.053.012c-.26.051-.473-.06-.635-.283M134.595 190.616l-1.559-4.833c-.095-.295.003-.592.225-.684l2.581-1.077c.19-.08.417.065.498.316.085.261-.01.527-.199.607l-2.194.916.492 1.528 1.909-.796c.19-.08.417.065.5.324.08.252-.012.519-.203.597l-1.909.797.51 1.577 2.225-.927c.19-.08.417.065.498.317.084.26-.01.526-.2.606l-2.612 1.09c-.223.092-.468-.065-.562-.358M147.099 181.699c.562-.274.744-.772.472-1.269l-.008-.014c-.289-.523-.792-.642-1.373-.359l-1.144.557.903 1.645 1.15-.56zm-3.03-1.051c-.135-.245-.066-.517.157-.627l1.6-.779c.562-.274 1.101-.308 1.559-.14.382.151.714.45.95.878l.006.013c.43.783.275 1.461-.214 1.958l1.505.765c.135.068.235.135.309.267.13.239.033.49-.16.583-.177.087-.343.053-.504-.037l-1.92-.99-.99.484.721 1.316c.13.239.062.512-.155.618-.225.109-.5.004-.63-.234l-2.235-4.075zM156.228 176.297l-2.861-1.275a.687.687 0 0 1-.275-.236c-.149-.224-.114-.508.085-.649.15-.109.322-.079.506.01l2.375 1.122-.158-2.71c-.015-.21.018-.383.165-.488.204-.145.461-.058.611.165.078.117.1.251.103.369l.131 3.178.993 1.486c.153.23.123.522-.074.663-.194.137-.469.062-.623-.169l-.978-1.466zM66 35.696v-3.11c0-.188.103-.35.235-.368l1.539-.217c.113-.016.207.107.207.27 0 .166-.094.31-.207.325l-1.309.185v.982l1.138-.16c.113-.016.207.105.207.273 0 .162-.094.305-.207.32l-1.138.16v1.017l1.327-.188c.114-.016.208.105.208.267 0 .168-.094.31-.208.327l-1.557.22c-.132.018-.235-.114-.235-.303M69.09 34.645a.337.337 0 0 1-.09-.248c0-.177.097-.33.216-.347a.148.148 0 0 1 .135.041c.215.223.446.334.729.292.283-.042.462-.268.462-.556v-.011c0-.276-.105-.411-.589-.506-.554-.118-.867-.315-.867-1.03v-.012c0-.664.372-1.18.89-1.255a.99.99 0 0 1 .827.24c.053.035.1.122.1.255 0 .178-.097.33-.216.348a.16.16 0 0 1-.12-.031c-.2-.166-.393-.236-.6-.206-.267.04-.423.267-.423.521v.012c0 .3.12.414.621.518.55.118.835.37.835 1.013v.01c0 .727-.383 1.215-.932 1.295-.353.052-.688-.065-.978-.343M74.178 31.788l-.882.092c-.165.017-.296-.112-.296-.282 0-.17.131-.327.296-.345l2.414-.252c.16-.016.29.114.29.284 0 .17-.13.326-.29.342l-.889.093v2.91c0 .187-.144.35-.322.368-.175.019-.32-.113-.32-.3v-2.91zM76.503 35.003c.284-.027.497.153.497.416v.068c0 .263-.213.483-.497.51-.292.027-.503-.153-.503-.416v-.068c0-.263.211-.483.503-.51M117.124 29.367l.832-1.115c.37-.495.507-.76.507-1.103 0-.376-.19-.568-.438-.534-.217.03-.368.192-.534.5-.034.06-.09.117-.167.127-.12.017-.215-.107-.215-.275 0-.072.019-.151.053-.215.221-.42.472-.684.898-.744.53-.073.895.335.895 1.018v.01c0 .602-.225.96-.705 1.58l-.558.731 1.1-.153c.116-.015.208.102.208.266 0 .164-.092.308-.207.324l-1.537.213c-.147.021-.256-.084-.256-.28 0-.131.043-.247.124-.35M122.375 27.914v-.01c0-.76-.35-1.342-.88-1.284-.532.06-.87.702-.87 1.466v.011c0 .76.344 1.343.88 1.284.535-.059.87-.713.87-1.467m-2.375.263v-.011c0-1.1.6-2.057 1.506-2.158.9-.099 1.494.715 1.494 1.816v.01c0 1.101-.6 2.058-1.505 2.158-.904.1-1.495-.715-1.495-1.815M125.097 25.734l-.534.163a.78.78 0 0 1-.162.03c-.214.017-.401-.105-.401-.261 0-.146.12-.267.305-.32l.785-.248a2.1 2.1 0 0 1 .444-.095l.014-.001c.26-.02.452.117.452.307v3.315c0 .19-.202.356-.452.374-.243.019-.451-.117-.451-.307v-2.957zM126.338 28.522l1.081-2.885-1.203.162c-.119.017-.216-.101-.216-.264 0-.162.097-.306.216-.322l1.56-.211c.136-.018.224.079.224.27 0 .097-.028.22-.069.33l-1.15 3.143c-.062.159-.136.239-.236.253-.131.017-.25-.074-.25-.265 0-.055.021-.15.043-.211M88 50c3.551 0 8.112-.444 12.841-1.25 9.204-1.569 18.51-4.522 18.149-6.75M95.009 87l-.009.012c.012.028.028.05.038.078-.01-.029-.017-.062-.029-.09M94.774 87l-4.312 6.212A16.26 16.26 0 0 1 90 95l5-7.203a7.82 7.82 0 0 0-.226-.797M117.962 57.483c-.76-.548-1.233-1.07-1.532-1.483L104 74.108c.124.069.248.128.37.212.06.04.124.092.185.134l10.456-15.232c.753-.076 2.116-.01 1.128 1.675-.381.651-4.45 6.629-10.04 14.797.285.286.575.572.823.862.126.143.223.294.325.444L120 58.422a6.156 6.156 0 0 1-2.038-.94M85.25 106.33c-8.796 12.531-15.945 22.704-15.945 22.704s-2.405 1.523-2.05-.542l18.816-26.853c-.262.14-.518.292-.8.397-.127.049-.252.083-.379.126l-18.497 26.396a2.187 2.187 0 0 0 .547 3.05h.002c.382.265.822.392 1.256.392.697 0 1.385-.327 1.812-.938l25.564-36.481c.008-.046.018-.081.026-.13l.204-1.124c.05-.4.056-.826.13-1.255.068-.347.057-.708.064-1.072a34390.41 34390.41 0 0 1-10.75 15.33z"/>
        <path d="M185.794 93.398c-.466-.125-.765-.11-.765-.11s.065-.029.198-.066c.132-.035.332-.095.594-.096.51-.033 1.353.111 2.068.783.158.175.36.345.5.557l.408.68c.183.49.444 1.02.508 1.58.121.56.214 1.138.208 1.722.043.59.017 1.178-.027 1.762-.06 1.18-.31 2.313-.523 3.38-.283 1.047-.546 2.023-.847 2.834-.61 1.62-1.13 2.651-1.13 2.651s.075-1.166.361-2.844c.08-.418.109-.881.189-1.36.069-.48.137-.986.231-1.505.075-.52.105-1.062.19-1.604.091-.545.126-1.097.152-1.647.058-.55.097-1.1.072-1.632l.005-.796-.077-.757c-.023-.51-.172-.947-.262-1.392-.164-.404-.311-.794-.54-1.094a2.718 2.718 0 0 0-1.513-1.046m-5.116 45.994c-.21-.028-.501.04-.784-.086-.286-.1-.645-.182-.987-.365-.307-.226-.712-.43-1.007-.767-.284-.34-.65-.682-.847-1.123-.252-.42-.476-.865-.612-1.347-.186-.47-.263-.962-.381-1.45a13.956 13.956 0 0 1-.178-2.885c.038-.914.142-1.758.294-2.47.277-1.427.68-2.321.68-2.321l.107 2.384c.027.706.073 1.523.132 2.387.07.864.153 1.775.323 2.66.095.434.145.89.295 1.293.067.206.125.413.177.62l.242.566c.135.394.37.688.551 1.015.197.313.47.522.675.785.245.208.509.355.73.526.217.186.467.21.648.31l.61.262s-.234.012-.668.006m-14.736-33.337a7.631 7.631 0 0 1-.173.471s-.044-.183-.1-.495c-.065-.312-.1-.753-.188-1.266-.051-.255-.104-.53-.14-.817-.024-.293-.148-.574-.196-.878-.045-.31-.176-.594-.267-.89-.073-.31-.236-.57-.367-.845-.535-1.092-1.549-1.796-2.49-2.16a15.905 15.905 0 0 0-1.19-.408 3.69 3.69 0 0 1-.361-.127l-.11-.065.135-.005c.096-.014.191-.052.352-.076.31-.062.773-.129 1.341-.091.285.013.596.058.92.153.318.1.675.207.99.42.332.186.644.43.924.724.26.3.517.628.704.98.357.717.58 1.48.618 2.188.024.352.07.696.025 1.013-.021.318-.058.617-.095.89-.075.544-.242.98-.332 1.284m-5.032 29.964c-.06.357-.108.884-.292 1.478a11.494 11.494 0 0 1-.724 2.007 12.107 12.107 0 0 1-1.25 2.13 10.118 10.118 0 0 1-1.728 1.806 7.237 7.237 0 0 1-1.9 1.105c-.609.23-1.157.302-1.536.289-.4.005-.583-.17-.566-.164 0 0 .054.015.152.015.097-.016.204-.057.372-.121.317-.134.74-.378 1.206-.716.926-.697 1.995-1.784 2.893-3.04.23-.311.473-.61.67-.941.197-.328.443-.619.618-.944.398-.62.748-1.22 1.062-1.735l.764-1.26c.196-.305.321-.477.321-.477s-.014.208-.062.568m-21.924-31.222c-.312-.169-.522-.23-.522-.23s.208-.058.595-.034c.383.02.956.159 1.523.566.291.188.569.458.814.769l.36.497c.1.18.186.373.28.567.196.388.295.808.423 1.236.067.43.146.87.192 1.306l.012 1.3c-.027.422-.093.835-.136 1.234-.028.403-.147.773-.226 1.13-.08.356-.173.689-.26.993a15.983 15.983 0 0 1-.815 1.96s-.056-.867.034-2.097c-.015-.622.048-1.334.055-2.088.006-.378-.01-.765.014-1.158l-.055-1.173c-.026-.387-.082-.768-.122-1.147-.106-.351-.117-.74-.248-1.06a5.15 5.15 0 0 0-.364-.93c-.15-.275-.3-.543-.484-.75a3.467 3.467 0 0 0-1.07-.891m-3.55 45.185c-.192.067-.428.15-.706.231-.285.027-.618.048-.988.054-.371.03-.766-.144-1.194-.254-.38-.195-.833-.43-1.155-.785-.332-.355-.664-.737-.856-1.192-.262-.433-.361-.904-.533-1.364-.203-.937-.326-1.875-.292-2.742-.001-.87.11-1.665.23-2.339.118-.673.27-1.225.383-1.603.12-.361.173-.602.173-.602s.062.207.099.623l.132 1.626c.107 1.325.206 3.083.61 4.687.136.377.202.801.397 1.128.09.168.153.357.245.515l.308.44c.085.168.238.245.355.366.128.104.232.25.375.324.301.11.554.341.857.39.297.059.576.136.833.2l.687.025.627.047s-.205.09-.587.225m-20.998-4.675c-.044.401-.059.992-.22 1.669a13.363 13.363 0 0 1-.653 2.295c-.298.825-.72 1.671-1.217 2.476-.242.406-.544.776-.821 1.151-.276.377-.623.691-.923 1.018-.653.611-1.323 1.116-1.956 1.448-.63.338-1.192.534-1.596.623-.405.09-.64.091-.64.091s.815-.465 1.78-1.36c.239-.228.492-.474.747-.749.27-.257.498-.586.775-.878.494-.647 1.026-1.329 1.466-2.082.235-.366.476-.73.668-1.117.197-.384.44-.737.606-1.117.388-.732.714-1.44 1.011-2.048l.707-1.49c.181-.361.298-.567.298-.567s-.003.232-.032.637m-23.185-20.032a6.579 6.579 0 0 0-.746.466 5.951 5.951 0 0 0-.875.725c-.159.123-.273.306-.423.453-.152.142-.26.34-.397.505-.513.7-.945 1.518-1.299 2.16-.336.644-.61 1.113-.61 1.113s-.189-.52-.153-1.316a4.99 4.99 0 0 1 .24-1.337c.137-.487.402-.969.705-1.432.348-.431.733-.852 1.2-1.115.218-.15.449-.26.681-.33.224-.09.439-.154.65-.168.819-.143 1.346.116 1.338.08 0 0-.117.08-.311.196m-44.868-33.08l-.198.706c-.081.26-.154.534-.25.783-.072.264-.198.49-.278.741-.14.225-.218.48-.375.711-.125.242-.285.482-.435.712-.292.454-.608.87-.608.87l-.135.027s-.09-.362-.09-.91c-.011-.549.088-1.292.383-1.976a4.607 4.607 0 0 1 1.24-1.583c.204-.186.401-.303.534-.392l.209-.138.073.118s-.023.136-.07.332m-7.109 93.612c-.221.519-.502 1.285-.958 2.14a28.29 28.29 0 0 1-1.641 2.884 29.689 29.689 0 0 1-2.25 3.08c-1.662 2.006-3.649 3.751-5.333 4.767-.83.52-1.575.87-2.11 1.07-.536.202-.857.263-.857.263s1.097-.694 2.497-1.967c.71-.625 1.485-1.408 2.305-2.25.795-.87 1.654-1.784 2.44-2.77.41-.476.815-.958 1.188-1.455.375-.495.783-.954 1.125-1.439.728-.937 1.383-1.835 1.961-2.599l1.394-1.86.557-.696-.318.832m-13.531 2.433c-.85 1.858-1.733 3.425-2.65 4.7-.919 1.274-1.99 2.172-3.214 2.693-.815.346-1.324.244-1.528-.308-.204-.553-.24-1.314-.103-2.286.136-.974.408-1.998.816-3.073a49.709 49.709 0 0 1 1.122-2.751 33.435 33.435 0 0 1 4.69-7.166c1.646-1.914 3.48-3.683 5.455-5.345l-.003-.037s.167-.136.408-.321c.089-.074.168-.156.258-.229l-.017.046c.597-.443 1.45-1.022 1.882-1.048 0 0-1.656.979-2.237 2.02-.867 2.342-1.67 4.588-2.38 6.695-.817 2.413-1.65 4.55-2.5 6.41M3.256 129.446c.096.287.138.596.3.84.132.257.241.523.425.72.17.201.299.427.455.592l.425.416.375.397s-.187-.048-.519-.163c-.164-.059-.369-.13-.599-.227-.225-.104-.448-.28-.705-.461-.275-.164-.5-.426-.729-.722-.263-.274-.425-.638-.586-1.022-.177-.378-.224-.807-.298-1.233.017-.42-.037-.87.055-1.28.067-.421.17-.827.308-1.21.105-.397.316-.735.468-1.084a9.17 9.17 0 0 1 1.151-1.695c.771-.912 1.454-1.345 1.454-1.345l-.786 1.767c-.228.52-.472 1.124-.71 1.764-.199.647-.456 1.326-.519 2.008-.095.34-.051.67-.09 1.002.068.31.015.65.125.936m121.352-66.95c.37.055.911.237 1.434.662.276.196.521.471.756.775.226.312.453.654.601 1.041.362.758.505 1.621.615 2.473l.018 1.266c-.008.414-.082.816-.117 1.207-.089.779-.302 1.478-.458 2.077-.396 1.18-.785 1.918-.785 1.918s-.064-.847.003-2.047c-.024-.606.039-1.301.026-2.037a28.15 28.15 0 0 0-.063-2.271c-.048-.373-.074-.754-.136-1.117-.099-.347-.108-.726-.238-1.04a6.37 6.37 0 0 0-.339-.927c-.144-.271-.273-.55-.444-.762-.636-.917-1.457-1.239-1.457-1.239s.21-.038.584.02m79.322 49.01c-.145-.602-.475-1.033-.994-1.29-.518-.195-1.066-.142-1.642.157-.576.299-1.008.77-1.294 1.413a281.551 281.551 0 0 0-2.032 3.842 77.984 77.984 0 0 1-2.203 3.93 137.556 137.556 0 0 1-2.764 4.448c-2.362 3.507-4.06 5.545-5.097 6.114-.576.268-.964.09-1.165-.532-.203-.621-.26-1.628-.175-3.021.088-1.392.274-3.098.562-5.114.289-2.016.662-4.292 1.124-6.829a84.574 84.574 0 0 1 1.296-5.96c.518-2.04.95-3.978 1.295-5.817.345-1.84.533-3.543.562-5.115.028-1.571-.259-2.857-.863-3.86-.606-1.002-1.613-1.668-3.025-1.998-1.412-.328-3.412-.181-6.003.444-1.498.363-2.925 1.065-4.276 2.107a21.872 21.872 0 0 0-3.758 3.726 40.507 40.507 0 0 0-3.24 4.725 68.866 68.866 0 0 0-2.079 3.824l-1.865 3.916s.829-2.452 1.168-4.517c.006-.233.004-.456.011-.692a98.57 98.57 0 0 0 .043-3.02c0-1.533-.301-2.73-.906-3.593-.606-.861-1.382-1.421-2.334-1.678-.95-.257-1.958-.305-3.023-.143a9.165 9.165 0 0 0-2.937.953c-.893.472-1.627 1.023-2.202 1.648-.576.627-.807 1.22-.691 1.777.115.687.085 2.059-.087 4.112-.173 2.055-.433 4.46-.778 7.219a193.837 193.837 0 0 1-1.338 8.874c-.119.687-.251 1.346-.376 2.022a290.325 290.325 0 0 0-1.783 3.38 78.522 78.522 0 0 1-2.203 3.93 137.294 137.294 0 0 1-2.764 4.448c-2.363 3.507-4.06 5.545-5.097 6.114-.576.268-.966.09-1.166-.531-.204-.622-.26-1.63-.174-3.022.087-1.392.273-3.098.562-5.114.287-2.016.662-4.292 1.123-6.829a84.057 84.057 0 0 1 1.296-5.96c.517-2.039.95-3.978 1.295-5.817.346-1.84.533-3.543.562-5.115.028-1.571-.258-2.857-.864-3.86-.605-1.002-1.613-1.668-3.024-1.997-1.411-.33-3.412-.182-6.004.444-2.361.57-4.507 1.9-6.435 3.99-1.93 2.091-4.373 4.588-5.87 7.243 0 0-1.468 2.375-2.256 3.694-.221.385-.366.625-.366.625 2.132-3.758 3.38-7.876 3.97-12.143.627-4.529 1.628-9.003 2.449-13.5 1.636-8.96 3.065-18.011 3.065-27.143 0-1.529-.303-2.713-.908-3.554-.604-.841-1.381-1.386-2.332-1.635-.95-.248-1.958-.291-3.022-.13-3.555.542-5.677 2.248-5.942 5.887-1.583 21.837-5.712 43.557-10.256 64.95-.152.718-.303 1.413-.453 2.108-1.97 1.22-3.678 2.21-5.12 2.964a20.059 20.059 0 0 1-3.482 1.435s-.16.051-.429.114c-.15.04-.301.089-.445.092-.885.159-2.308.279-3.618-.206 0 0 2.473.242 3.78-.636.274-1.328.456-2.651.48-3.963.028-1.598-.13-3.073-.475-4.423-.346-1.35-.894-2.507-1.642-3.472a6.284 6.284 0 0 0-2.85-2.083c-1.095-.372-2.29-.068-3.586.914-1.295.981-2.29 2.32-2.98 4.016a24.078 24.078 0 0 0-1.252 4.171c-.317 1.51-.432 2.971-.345 4.383.085 1.413.389 2.71.906 3.89a6.783 6.783 0 0 0 2.419 2.902c-1.44 4.616-3.24 8.443-5.399 11.48-2.16 3.038-4.133 4.804-5.918 5.298-1.728.482-2.837-.588-3.325-3.21-.491-2.618-.074-7.083 1.252-13.39a163.099 163.099 0 0 1 1.728-7.249 72.262 72.262 0 0 1 2.073-6.663c.748-2.027 1.526-3.791 2.333-5.293.805-1.499 1.61-2.505 2.418-3.02.575-.393 1.123-.668 1.643-.827.517-.156.89-.58 1.122-1.274.23-.69.216-1.294-.043-1.805-.26-.51-.65-.83-1.167-.96-1.179-.208-2.396-.16-3.644.096l-10.085 14.685a3.21 3.21 0 0 1-2.083 1.336 3.34 3.34 0 0 1-.577.052c-.195 0-.382-.053-.571-.087-.454.961-.88 1.925-1.292 2.85-.262.775-.627 1.491-.875 2.207a30.768 30.768 0 0 0-.707 2.02c-.396 1.266-.788 2.327-.977 3.09l-.345 1.2-.138-.008s.077-1.815.66-4.459c.136-.663.316-1.374.522-2.12.186-.754.47-1.523.715-2.332.31-.788.58-1.622.948-2.43l.228-.51a3.2 3.2 0 0 1-.713-.706 45.652 45.652 0 0 0-1.756 3.966 46.276 46.276 0 0 0-2.496 9.464c-2.08 2.733-4.678 5.197-7.754 7.436-.03.021-.175.119-.38.249-.17.118-.322.246-.495.363l.014-.073c-.526.305-1.187.645-1.695.76 0 0 1.68-.676 2.048-2.685.482-2.674.954-5.528 1.418-8.581a310.372 310.372 0 0 0 1.528-11.645c.441-3.94.832-7.83 1.173-11.672.339-3.84.612-7.458.817-10.853.203-3.393.305-6.425.305-9.095 0-2.667-.07-4.775-.205-6.321-.203-1.755-.73-3.037-1.58-3.847a5.105 5.105 0 0 0-3.059-1.403c-1.189-.126-2.431.043-3.72.504a14.686 14.686 0 0 0-3.519 1.808c-1.054.745-1.903 1.587-2.549 2.533-.646.945-.901 1.815-.764 2.609v2.255c-1.02 1.9-2.77 3.527-5.252 4.877-2.481 1.352-5.302 2.633-8.462 3.847a531.904 531.904 0 0 1-9.89 3.686c-3.432 1.243-6.56 2.695-9.38 4.351-2.821 1.66-5.149 3.613-6.984 5.86C.918 122.749 0 125.452 0 128.609c0 1.804.475 3.268 1.428 4.39.951 1.124 2.157 1.923 3.62 2.396 1.46.476 3.04.638 4.74.49a13.757 13.757 0 0 0 4.741-1.258c1.462-.691 2.668-1.64 3.62-2.847.952-1.206 1.427-2.674 1.427-4.404-1.088.263-1.886.343-2.395.24-.51-.103-.765-.792-.765-2.07 0-1.503 1.053-3.13 3.16-4.88 2.106-1.749 4.59-3.513 7.443-5.293a841.679 841.679 0 0 1 8.616-5.294c2.763-1.674 4.936-3.205 6.55-4.603.454-.417.99-.917 1.369-1.296.226-.258.397-.422.397-.422-.083.101-.23.253-.397.422-.413.471-1.023 1.297-1.222 2.226-.02.27-.038.533-.06.818-.183 2.42-.406 5.084-.673 8.01-.34 3.73-.714 7.598-1.122 11.604a520.924 520.924 0 0 1-1.376 12.116 374.697 374.697 0 0 1-1.58 11.319c-.544 3.477-1.105 6.564-1.683 9.257-.411 1.918-.83 3.479-1.259 4.715-.005.017-.003.025-.01.045-.289.898 1.627.442 1.627.442-1.098.415-2.575 1.26-3.278 1.677-.667.466-1.349.924-1.974 1.408a65.395 65.395 0 0 0-2.906 2.393c-5.504 4.636-9.583 9.681-12.235 15.133-1.427 2.974-2.26 5.488-2.497 7.538-.24 2.048.118 3.899 1.07 5.548.339.595.799 1.16 1.377 1.698.576.537 1.326.976 2.242 1.318.918.343 2.022.527 3.315.553 1.29.027 2.819-.174 4.587-.6 2.04-.42 3.994-1.473 5.862-3.164 1.87-1.693 3.637-3.754 5.303-6.186s3.245-5.108 4.74-8.024a112.026 112.026 0 0 0 4.029-8.753 226.668 226.668 0 0 0 3.21-8.33 170.8 170.8 0 0 0 2.346-6.881 44.5 44.5 0 0 0 9.315-7.008l1.35-1.24s-1.175 1.213-1.247 2.228c.138 1.523.362 2.983.756 4.319.893 3.033 2.506 5.335 4.838 6.905 2.332 1.571 5.543 1.862 9.632.874 2.247-.543 4.334-1.557 6.263-3.041 1.93-1.485 3.7-3.25 5.313-5.296a40.439 40.439 0 0 0 4.276-6.718 86.69 86.69 0 0 0 3.326-7.347c.288-.07.532-.113.735-.13.2-.016.445-.06.734-.13a25.416 25.416 0 0 0 5.14-1.862c.434-.21.894-.45 1.366-.703l3.772-2.127s-1.708 1.16-2.419 2.823l-.17.728c-.047.2-.095.381-.149.606-.696 2.88-1.382 5.397-2.055 7.523-.567 1.786-1.902 3.463-2.215 5.306-.146.854.06 1.822.732 2.368.496.402 1.162.52 1.797.566 5.209.386 9.74-3.06 11.479-7.841.92-2.451 1.814-5.198 2.678-8.242 2.047-7.208 4.6-14.183 7.252-21.18 1.652-4.354 3.99-11.4 9.164-12.64.746-.18 1.09.358 1.034 1.612-.058 1.256-.302 2.94-.735 5.05-.43 2.11-.992 4.54-1.683 7.285-.691 2.747-1.34 5.531-1.944 8.352a90.161 90.161 0 0 0-1.383 8.216c-.317 2.656-.345 4.956-.086 6.9.26 1.943.907 3.41 1.943 4.403 1.037.991 2.65 1.223 4.838.694 1.439-.347 2.821-.999 4.147-1.958a27.065 27.065 0 0 0 3.802-3.36 41.37 41.37 0 0 0 3.41-4.127 150 150 0 0 0 1.344-1.885l2.024-2.984c.026-.04.05-.08.072-.107l.978-1.441s-.665 1.162-1.281 2.468c-.067.223-.132.456-.2.674a39.9 39.9 0 0 1-.835 2.434c-.432 1.136-.859 2.074-1.28 2.758-.52.827-.634 1.539-.346 2.138.288.6.836 1.025 1.641 1.276.807.251 1.786.318 2.937.198 1.152-.12 2.317-.465 3.5-1.036 1.179-.572 2.302-1.417 3.368-2.534 1.065-1.117 1.914-2.548 2.55-4.294 1.322-3.76 2.418-7.064 3.282-9.917 1.759-5.8 3.296-11.42 5.744-17.008a83.391 83.391 0 0 1 3.499-7.103c1.21-2.17 2.39-4 3.542-5.49 1.151-1.486 2.16-2.336 3.023-2.545.748-.18 1.093.358 1.037 1.613-.057 1.256-.303 2.94-.734 5.05-.432 2.11-.994 4.54-1.685 7.286-.69 2.746-1.338 5.53-1.944 8.35a90.487 90.487 0 0 0-1.382 8.217c-.316 2.656-.346 4.956-.085 6.9.259 1.943.905 3.41 1.942 4.403 1.037.991 2.649 1.223 4.838.694 1.44-.347 2.822-1 4.147-1.958a26.964 26.964 0 0 0 3.801-3.36 41.389 41.389 0 0 0 3.413-4.128c1.065-1.469 2.057-2.89 2.98-4.26a113.957 113.957 0 0 0 2.893-4.672c.892-1.524 1.67-2.893 2.334-4.107.66-1.211 1.18-2.182 1.554-2.911.374-.728.59-1.13.649-1.21.286-.643.359-1.267.216-1.872"/>
        <path d="M138.02 94.927c.502-.658.994-1.486 1.486-2.383.46-.918.95-1.898 1.313-2.938.215-.505.4-1.023.56-1.543.17-.515.356-1.018.483-1.522.13-.503.313-.976.42-1.443.112-.464.233-.902.348-1.308.226-.81.366-1.5.506-1.979l.22-.755.027.783c-.003.497.038 1.215-.047 2.066-.07.853-.17 1.85-.408 2.9a12.96 12.96 0 0 1-.4 1.613c-.152.546-.33 1.094-.545 1.632a16.109 16.109 0 0 1-.702 1.58c-.228.524-.556.991-.83 1.461-.602.911-1.242 1.715-1.896 2.304-.305.313-.637.55-.916.766-.288.21-.552.372-.776.492-.45.242-.73.322-.73.322s.918-.706 1.888-2.048m3.135-34.539c.442-.007.968.097 1.498.33.26.125.533.262.766.47.258.176.44.439.66.663.153.268.339.526.446.805.103.278.216.556.25.83.113.546.105 1.053.052 1.477-.024.424-.163.763-.226.998a5.042 5.042 0 0 1-.132.364s-.05-.139-.116-.373c-.078-.232-.12-.566-.24-.941a7.083 7.083 0 0 1-.166-.6c-.064-.206-.165-.41-.228-.627-.053-.225-.21-.404-.285-.622-.091-.211-.245-.382-.358-.578-.534-.715-1.331-1.223-2.055-1.502a9.473 9.473 0 0 0-1.278-.424s.525-.29 1.412-.27m23.617-6.667c.54.04 1.174.198 1.817.512.298.197.644.362.903.658.298.253.502.594.725.922.156.354.317.723.389 1.088.05.367.136.738.092 1.079-.009.696-.172 1.303-.343 1.804-.152.506-.403.88-.537 1.15-.152.265-.247.41-.247.41l.009-.481c-.002-.303.072-.718.071-1.211a11.52 11.52 0 0 1 .013-.783c.007-.273-.06-.552-.064-.839.014-.296-.134-.555-.164-.844-.065-.279-.202-.53-.316-.786-.154-.231-.276-.488-.488-.675-.174-.218-.405-.384-.614-.566-.246-.135-.46-.317-.708-.424-.236-.127-.475-.227-.7-.325a13.89 13.89 0 0 0-1.602-.529s.68-.252 1.764-.16m-34.048 44.58c.31.236.69.395 1.072.491 3.105.785 6.356-.754 8.534-2.91 4.31-4.265 4.306-10.054 5.876-15.5.834-2.888 2.185-5.84 3.331-8.66a65.53 65.53 0 0 1 2.876-6.178c1.014-1.899 2.023-3.514 3.032-4.843 1.006-1.327 1.92-2.114 2.741-2.358.381-.113.53.141.444.762-.088.623-.27 1.45-.546 2.479-.275 1.03-.582 2.178-.923 3.443a18.14 18.14 0 0 0-.609 3.676c-.066 1.185.038 2.238.315 3.157.273.922.9 1.535 1.88 1.84 1.04.342 2.162.36 3.369.056a13.717 13.717 0 0 0 3.455-1.392 19.675 19.675 0 0 0 3.093-2.178c.965-.828 1.74-1.586 2.326-2.276.585-.687.916-1.233.995-1.636.077-.402-.158-.522-.704-.36-1.203.357-1.905.185-2.104-.518-.2-.702-.254-1.64-.158-2.813.095-1.173.195-2.455.3-3.848.104-1.392-.096-2.585-.6-3.58-.507-.993-1.462-1.663-2.865-2.009-1.404-.344-3.581-.08-6.533.796a12.05 12.05 0 0 0-4.302 2.301c-1.283 1.063-2.477 2.331-3.583 3.805a33.304 33.304 0 0 0-2.959 4.725 66.43 66.43 0 0 0-2.104 4.494l-1.267 2.98s1.091-2.696.86-5.398l-.273-3.17c-.11-1.268-.485-2.226-1.128-2.875-.646-.648-1.436-1.038-2.372-1.166-.936-.128-1.914-.082-2.932.14a9.995 9.995 0 0 0-2.77 1.026c-.83.463-1.501.973-2.013 1.532-.513.558-.695 1.06-.543 1.502.158.55.255 1.672.289 3.368.033 1.697-.005 3.7-.116 6.008-.11 2.309-.276 4.784-.496 7.422-.415 4.938-.859 9.342-2.96 13.899-.433.94-.97 2.204-.419 3.208.121.22.291.405.491.558M67.022 130l-.019.026c-.003.004 0 .009-.003.012l.022-.038M76.145 65.732c-.036-.66.004-1.34.081-2.03.063-.691.252-1.372.376-2.065.232-.663.427-1.34.693-1.976.29-.623.575-1.24.9-1.804.341-.556.693-1.078 1.021-1.571.358-.473.735-.891 1.07-1.282.635-.811 1.362-1.306 1.78-1.724.447-.393.713-.601.713-.601s-.18.295-.514.784c-.326.495-.854 1.148-1.343 2.023l-.836 1.366c-.254.508-.517 1.042-.81 1.579-.276.547-.465 1.153-.736 1.731-.233.594-.392 1.223-.597 1.836-.125.631-.319 1.254-.39 1.885-.075.63-.189 1.249-.189 1.857-.047.607-.015 1.194-.01 1.757.053.555.07 1.093.152 1.578a15.995 15.995 0 0 0 .76 3.25s-.224-.26-.527-.78c-.276-.528-.715-1.288-1.007-2.29-.172-.494-.287-1.05-.404-1.64-.077-.593-.197-1.224-.183-1.883m29.243 11.85c.539.38 1.143.894 1.65 1.562.542.646.959 1.449 1.316 2.268.306.841.53 1.706.622 2.53.091.824.09 1.592.009 2.243-.026.651-.202 1.18-.279 1.548-.094.367-.161.572-.161.572s-.05-.216-.115-.586c-.078-.37-.106-.894-.242-1.506a20.53 20.53 0 0 1-.17-.983c-.084-.343-.177-.7-.246-1.07-.073-.372-.23-.732-.314-1.116-.1-.38-.267-.741-.393-1.116a16.14 16.14 0 0 0-.474-1.078c-.197-.333-.336-.697-.55-1-.372-.647-.804-1.197-1.184-1.675a12.777 12.777 0 0 0-1.454-1.493s.89.133 1.985.9m-24.786-.077a22.556 22.556 0 0 0 5.168 2.891 30.516 30.516 0 0 1 5.08 2.576c1.534.977 2.779 2.186 3.735 3.625.955 1.44 1.345 3.4 1.173 5.883-.232 2.692-.971 5.103-2.215 7.235a18.864 18.864 0 0 1-3.381 4.28L83.313 114c1.017-.2 2.052-.447 3.107-.753 4.082-1.182 7.874-3.048 11.378-5.6a33.358 33.358 0 0 0 8.728-9.392c2.315-3.708 3.474-7.909 3.474-12.6 0-2.569-.564-4.682-1.693-6.336a16.36 16.36 0 0 0-4.212-4.231 29.708 29.708 0 0 0-5.429-2.974 60.304 60.304 0 0 1-5.428-2.587c-1.68-.91-3.084-1.966-4.212-3.172-1.129-1.203-1.694-2.736-1.694-4.6 0-1.798.491-3.493 1.477-5.081a20.191 20.191 0 0 1 3.561-4.285c1.01-.92 2.072-1.69 3.159-2.389-2.742.306-5.302.47-7.482.47-1.56 0-2.821-.081-3.85-.236-2.42 2.018-4.509 4.208-6.2 6.603C76 59.667 75 62.495 75 65.322c0 3.213.535 5.749 1.607 7.61 1.07 1.86 2.401 3.386 3.995 4.573"/>
        <path d="M83.14 84.206a5.34 5.34 0 0 1 1.151.405c.468.209.97.55 1.45.99.48.44.895 1.01 1.225 1.622.163.308.263.641.393.955.102.322.148.654.22.964.07.635.084 1.223.001 1.72-.033.496-.188.895-.268 1.17-.092.275-.157.427-.157.427s-.05-.165-.116-.442c-.073-.278-.119-.67-.246-1.12-.092-.456-.247-.961-.393-1.495-.195-.519-.377-1.067-.658-1.57-.249-.518-.57-.994-.896-1.436-.34-.43-.68-.83-1.01-1.156a33.605 33.605 0 0 0-.826-.8 1.834 1.834 0 0 1-.313-.34c-.002.009.169.055.443.106m-8.086 28.78c.075.01.155.006.23.014l3.91-5.535c-.707.019-1.404-.001-2.08-.1a9.633 9.633 0 0 1-4.934-2.236c-1.43-1.215-2.373-2.95-2.83-5.208-.401-1.771-.401-3.419 0-4.947.399-1.525.999-2.835 1.8-3.928.8-1.091 1.717-1.962 2.746-2.612 1.03-.649 1.988-.97 2.874-.964.886.009 1.616.333 2.188.974.571.643.8 1.662.686 3.058-.115 1.21-.414 2.448-.9 3.714-.487 1.268-1.102 2.362-1.845 3.285-.514.62-.415 1.234.3 1.842.714.609 1.687.985 2.917 1.127a6.84 6.84 0 0 0 1.651-.01c.046-.006.09-.006.135-.012a9.424 9.424 0 0 0 2.118-.532c1.373-.513 2.46-1.549 3.26-3.109.922-1.84 1.465-3.602 1.647-5.286.002-.02 0-.037.002-.055.05-.493.08-.981.068-1.46-.058-2.133-.616-3.929-1.674-5.39-1.058-1.458-2.56-2.502-4.504-3.13-1.945-.626-4.147-.648-6.607-.063-2.46.584-4.533 1.497-6.22 2.738-1.688 1.24-3.045 2.683-4.074 4.328a17.784 17.784 0 0 0-2.231 5.337 24.326 24.326 0 0 0-.687 5.67c0 3.921 1.144 6.885 3.431 8.892 2.288 2.01 5.162 3.207 8.623 3.599M102.976 61.723c.651.296 1.458.355 2.421.175.964-.178 1.998-.557 3.103-1.134a14.902 14.902 0 0 0 3.101-2.174 12.8 12.8 0 0 0 2.421-2.94c.651-1.09.978-2.228.978-3.415 0-2.57-.442-4.627-1.268-6.235-.208.08-.412.16-.637.241-.189.07-.395.136-.592.205.266.487.493.991.612 1.51.192.797.204 1.571.106 2.2a5.817 5.817 0 0 1-.395 1.458c-.149.33-.244.507-.244.507s-.015-.211-.021-.562a15.157 15.157 0 0 0-.12-1.406 8.444 8.444 0 0 0-.465-1.813 8.17 8.17 0 0 0-.784-1.46c-1.583.5-3.34.981-5.2 1.42.124.213.218.447.256.72.113.828-.042 1.807-.467 2.937a28.17 28.17 0 0 1-1.487 3.297 285.094 285.094 0 0 1-1.572 2.922c-.482.882-.722 1.455-.722 1.718 0 .924.324 1.533.976 1.829M128.672 50.757s.776-2.554.58-4.416a3.418 3.418 0 0 1-2.345.921c-1.862 0-3.372-1.455-3.372-3.251 0-1.796 1.51-3.252 3.372-3.252a3.4 3.4 0 0 1 2.81 1.458v-.002s2.648 3.247-1.045 8.542m-5.518 4.897c-.842 0-1.818-.268-2.734-.786-1.82-1.026-2.893-2.746-2.344-3.755.023-.043.064-.073.092-.112.82 2.991 3.368 4.723 6.433 4.136-.304.322-.798.509-1.447.517m-5.468-1.006c-.233.247-.566 0-.842-.292-.33-.637-.422-1.255-.166-1.727.157-.286.448-.468.793-.596.057.403.227.823.488 1.239.027.479 0 1.087-.273 1.376m2.31-10.637c-2.806 8.449 4.252 10.637 4.252 10.637s-3.947.439-5.406-3.52c-1.46-3.96 1.154-7.117 1.154-7.117m4.947-4.822c-3.897.958-7.057 5.29-7.057 9.676 0 .542.05 1.058.142 1.546a1.681 1.681 0 0 0-.38.46c-.098.179-.153.373-.182.574-.55.165-.992.466-1.243.927-.747 1.373.44 3.447 2.7 4.723 1.035.584 2.138.905 3.115.905l.059-.001c1.045-.014 1.823-.395 2.191-1.075.172-.315.205-.681.173-1.065.33-.17.59-.408.757-.714.03-.055.037-.117.06-.174 3.74-1.118 6.722-5.316 6.722-9.575 0-4.386-3.16-7.165-7.057-6.207"/>
        <path d="M86.128 42.39c-.005-.016.3.037.882.106L79.58 8.083c.176.025.367.044.567.06l7.43 34.414c.2.02.42.039.658.057l-5.294-34.45c1.592-.063 3.412-.223 5.233-.431l4.103 34.978a53.007 53.007 0 0 0 7.602-.744c8.669-1.46 12.245-3.957 12.245-3.957l.064 5.095c-.056.001-.111-.01-.162.02-.033.017-3.374 1.839-11.427 3.258-8.063 1.42-13 .537-13.048.527-.053-.01-.1.018-.15.033l-1.273-4.552zm4.583-38.87c-1.658.587-3.601 1.452-3.465 2.243.145.846 3.87.787 6.617.627-9.026 1.471-14.971 1.501-15.29.862.085-.648 4.656-2.27 12.138-3.731zm21.984 37.05l-2.07-38.224a.658.658 0 0 0-.122-.33c.01-.051.04-.104.032-.154-.051-.315-.167-1.046-5.185-.82-3.09.142-7.147.617-11.426 1.338-5.53.932-15.816 3.128-15.867 4.871-.003.012-.008.023-.007.034 0 .017-.014.034-.01.05.001.012.011.022.014.033a.664.664 0 0 0-.041.385l8.345 37.454c-2.86 1.086-4.667 2.219-4.506 3.205.215 1.313 3.602 1.588 6.406 1.588 3.522 0 8.044-.436 12.734-1.226 9.128-1.538 18.355-4.433 17.998-6.617-.212-1.296-3.513-1.579-6.295-1.586z"/>
    </g>
</svg>
